<?xml version="1.0" encoding="UTF-8"?>
<svg id="Calque_1" xmlns="http://www.w3.org/2000/svg" xmlns:xlink="http://www.w3.org/1999/xlink" version="1.1" viewBox="0 0 1920 1080">
  <!-- Generator: Adobe Illustrator 29.5.1, SVG Export Plug-In . SVG Version: 2.1.0 Build 141)  -->
  <defs>
    <style>
      .st0 {
        fill: none;
      }

      .st1 {
        clip-path: url(#clippath-1);
      }

      .st2 {
        clip-path: url(#clippath-3);
      }

      .st3 {
        clip-path: url(#clippath-2);
      }

      .st4 {
        fill: #fff;
      }

      .st5, .st6 {
        fill: #ee220c;
      }

      .st6 {
        font-family: Baskerville-Bold, Baskerville;
        font-size: 50px;
        font-weight: 700;
      }

      .st7 {
        clip-path: url(#clippath);
      }
    </style>
    <clipPath id="clippath">
      <rect class="st0" width="1920" height="1080"/>
    </clipPath>
    <clipPath id="clippath-1">
      <rect class="st0" x="347" y="249.26" width="1226" height="284"/>
    </clipPath>
    <clipPath id="clippath-2">
      <rect class="st0" x="1372.84" y="281" width="107.37" height="86.78" transform="translate(-36.14 295.91) rotate(-11.7)"/>
    </clipPath>
    <clipPath id="clippath-3">
      <rect class="st0" width="1920" height="1080"/>
    </clipPath>
  </defs>
  <g class="st7">
    <rect class="st4" width="1920" height="1080"/>
    <g class="st1">
      <g>
        <path d="M1573,249.26v284H347V249.26h1226ZM1246,312.04v-16.44c0-4.71-7.43-15.68-11.67-18.27s-6.38-.03-9.85-4.13l-.47,1.97c-4.34.04-9.58-2.19-13.85-1.38-.83.16-13.43,7.59-14.51,8.51-8.58,7.31-11.15,26.54-8.37,36.95.61,2.28,4.14,11.42,5.77,12.22,1.19.58,3.33,0,4.01,1.16,1.29,2.22.83,7.64.96,10.3l3.48-9.92,7.82,6.21c.45,5.69.94,11.45.73,17.21-.37,10.07-5.42,23.93,3.6,31.27,1.6-1.65,7.15-4.16,8.11-5.14,2.24-2.28-.17-1.38,3.01-3.06,1.36-.71,2.29-4.35,2.92-4.72,1.75-1.04,5.33.2,7.31.03-.29-.55-.73-1.45-.41-1.98,1.47-2.42,9.86-9.18,12.42-11.48-.03-2.03-6.21-8.4-8.51-8.46-.22,9.55-11.08,10.77-18.51,8.97-.48-2.33.29-1.6,1.29-2.23,4.05-2.56,11.25-5.75,14.68-8.26,1.19-.87,2.37-1.74,2.03-3.45-3.1,3-15.69,2.76-18.68.68-4.57-3.18-3.9-13.52-5.79-16.64-2-3.3-3.05,3.18-5.33-.18-.21-.32-.88-5.47-.72-5.78,1.81-3.55,2.48,1.1,3.52,1,.66-3.22-11.7-12.27-4.33-14.78,3.58-1.22,12.67.2,17.33-2.15,1.65,5.38-3.96,10.24-1.56,16.01,1.69,2.41,13.34-.57,13.54-2.55-2.29-2.9-4.44,1.57-6.91-2.08-2.73-4.03-.4-12.15-2.34-14.11-5.73-4.76-17.05-.91-17.73-10.21,11.31,1.04,22.94,2.25,33.99-1,2.02,9.6-6.9,7.04-9.99,10.47-3.94,4.37,5.48,6.07,8.49,5.54s1.57-2.86,3.49-3.05l1.01,2.98ZM819.84,377.95c-2.24-1.29-11.77,5.91-11.82,8.3,5.18,12.37,17.33,20.63,30.97,15.97,17.09-5.85,17.46-20.46,7.83-33.7-4.08-5.6-19.76-16.73-20.67-21.34-.35-1.76-.17-3.12,1.26-4.34,6.95-5.39,12.91,7.12,15.08,7.13,9.97-5.82,12.69-8.71,2.54-16.53-17.95-13.83-45.22,1.9-32.44,23.36,3.44,5.79,28.68,24.51,23.54,30.52-4.72,5.52-14.08-5.03-16.28-9.37ZM1013.78,329.26c-28.92,3.7-35.23,29.47-26.72,53.97,7.31,21.03,38.33,24.75,54.81,13.04-1.7-2.46-4.79-11.65-8.19-11.33-1.24.12-3.12,1.85-4.71,2.31-34.51,10.14-41.09-44.27-8.2-45.05,3.85-.09,7.65,1.72,11.52,1.59,17.64-15.09-6.75-16.04-18.51-14.54ZM1064,352.89v-21.92l-16.11-.42c-2.68,23.58,1.33,47.4.12,71.16h15.99s0-25.9,0-25.9l21.5,25.91h16.5l-1.14-5.34-25.92-33.08c-.22-2.15,5.01-8.05,6.66-10.31,4.49-6.14,13.13-13.84,16.42-19.51.7-1.21,1.34-1.9.98-3.5l-17.06-.47-17.94,23.38ZM873.99,401.72c-.69-5.38-2.49-23.82-.5-27.9,1.55-3.18,6.21-1.48,8.92-2.07,4.52-.99,12.84-4.68,15.59-8.38,6.76-9.09,6.35-25.65-5.77-30.15-9.82-3.64-21.4-1.38-31.69-3.24-6.15,1.11-2.6,8.51-2.51,12.41.28,12.03-1.07,24.05-1.09,35.87-.01,8.02,1.92,16.26,1.05,24.46,5.43-.94,10.59-3.02,15.99-1ZM913.29,388.49c4.1,5.13,16.66,12.28,23.29,13.15,42.71,5.61,56.33-50.03,20.1-67.86-17.23-8.48-38.55-1.92-46.56,15.76-4.23,9.33-3.23,30.94,3.17,38.95ZM1239,337.94c-4.79-6.33-12.52-3.51-18.99-1.97-.2,1.88,2.1.8,3.2.7,5.99-.57,9.99-1.66,15.79,1.27ZM1190.06,353.94c-.79.75.19,11.48,2.44,12.88,1.9,0,3.96-12.68,3.49-14.93l-5.93,2.05ZM1181,404.71c-1.47-5.9-3.34-12-3.04-18.37.15-3.09,1.76-6.88,1.83-10.03.09-4.19-1.7-10.05-1.8-14.44-1.68-.25-1.02,2.35-1.03,3.5,0,1.76.81,5.67.49,6.51-.64,1.71-5.35,3.47-4.47,6.92-2.65.81-1.47-1.34-2.73-1.94-4.55-2.16-18.61-6.03-22.25-1.54,1.72,1.52,3.27-1.57,5.29-1.28,1.64.24,17.22,7.77,18.75,9.2,5.14,4.8,3.93,11.16,3.94,17.49l-1.98-1.01-.07,3.95-2.94,1.03h10ZM1247,404.71h43c1.99-10.63-2.86-16.08-7.02-24.91l-1.94.06-.49,1.92c-4.67-.84-3.68-3.53-5.27-5.02-7.69-7.27-17.54-10.15-26.77-14.91l1.48,3.99-3.02-1.5-1.98,1.49,4.99,2.5-2.51,2.49-1.5-1.98c-2.64-.2-3.35,6.74-3,6.94.86.48,3.97-.52,5.01,1.53l-1.98.5,1.98,3.98-5.82-.11-2.67-4.87-4.48,8.48c1.44,2.26,2.93.96,5.01.92l1.1,4.4,6.9.61c.49,3.13.56,4.51,3.46,6.51l1.51-2.5-2.01-1.47c1.23-.08,2.7.42,3.82-.26.55-.34-.46-2.17,1.17-1.74-1.92,6.48,6.25,4.24,3.03-.52l1.97-.48,3.01,8.96-6.45.07-.55-3.06c-2.54-1-1.61,1.32-2.23,1.74-2.66,1.82-.9-1.6-4.28,3.22-1.21,1.72-4.27-.2-3.5,3.01ZM1138,390.26c-.85,3.88.62,10.22,0,14.45h30l-9-6.48,1.99-1.97c-1.57-2.44-4.87-3.53-6.63-5.47-1.18-1.3-.48-2.55-.69-2.79-1.18-1.37-7.65-4.02-7.66-4.7l.99-2.5,3,1-1.06-2.41,2.06-2.56-4.79.21c-.63,3.5-7.73,11.06-8.21,13.24ZM391.07,419.73c2.3-3.27,8.44,2.2,9.41,4.86l6.27-5.42c-4.2-10.88-23.37-11.7-26.32.48-2.79,11.5,16.74,17.03,16.57,27.9-5.94,1.46-6.94-4.14-11.48-5.99l-6.33,4.48c10.66,21.54,41.17,7.64,21.21-14.33-1.96-2.16-11.9-8.31-9.32-11.99ZM557.01,410.68c-3.02.45-9.45-1.68-10.06,2.52,3.4,12.4-1.12,28.97,1.06,40.82.21,1.13.4,2.01,1.62,2.42l8.38-.92-1-44.85ZM736,410.69l-11.95,1.05.09,43.16c.83,2.54,12.88,3.15,13.35-1.34,13.71,9.58,25.41-6.9,23.27-20.21-1.82-11.32-16.81-16.69-25.75-9.71l.99-12.96ZM1129.85,445.7c-1.41-.83-5.05,1.7-7.35,1.92-18.2,1.71-20.48-25.49-4.95-27.89,7.35-1.14,8.91,3.66,13.46-3.55,1.71-2.7,0-3.58-2.75-4.27-22.48-5.57-36.17,10.81-28.55,32.43,4.67,13.26,22.59,15.05,33.36,8.55l-3.23-7.2ZM1147.01,410.68l-8.37.14-1.5,1.49-1.14,44.21h10.01c-.55-4.87.29-24.37,6.54-24.96,8.79-.84,3.28,20.08,4.45,24.96h11.01c-.8-14.88,4.41-42.13-20-31.89l-1-13.96ZM1288.01,410.68c-3.02.45-9.45-1.68-10.06,2.52,3.4,12.4-1.12,28.97,1.06,40.82.21,1.13.4,2.01,1.62,2.42l8.38-.92-1-44.85ZM420,455.53v-16.44c2.96-2.12,6.68-1.84,10.37-3.61,10.58-5.09,10.53-20.48-2.11-22.55-2.47-.41-12.64-1.45-14.77-1.32-1.06.06-3.49.55-3.49,1.58v41.85l1.46,1.25,8.54-.75ZM714.64,419.02c-15.8-16.29-41.24-3.9-37.2,19.63,2.86,16.6,23.99,22.98,36.05,11.9,8.11-7.45,8.87-23.57,1.15-31.52ZM946,456.53v-23.92l4.93-1.08.07-8.88h-6s.01-10.98.01-10.98h-10.01s.93,9.35.93,9.35l-5.96,2.18.02,8.41h5.01s.43,23.94.43,23.94l10.56.97ZM1241.01,411.68h-10.01s0,10.96,0,10.96c-16.73-7.66-25.84,1.2-25.04,18.46.57,12.46,7.25,16.81,19.32,15.19,1.69-.23,3.91-1.88,5.17-1.82.56.03.46,1.85,1.23,2.04,2.31.57,5.8-.35,8.34.02l1-44.85ZM1448,455.53v-14.95c2.34-.6,1.67.55,2.29,1.27,6.64,7.71,9.2,18.26,21.72,13.17l-16.87-23.09,14.85-20.25c-11.92-2.38-15.08,4.21-20.51,12.96-2.17.39-1.52-1.01-1.53-2.53-.03-2.68,1.88-7.73.62-9.51l-10.58-.93,1,44.85,9-1ZM447.01,442.58l25.05-1.44c3.52-11.44-6.85-21.33-18.42-20.4-16.11,1.29-21.57,23.56-9.13,32.79,7.18,5.33,25.1,5.18,26.35-5.84-6.87-6.08-7.04-.55-12.58.63s-9.84-.19-11.27-5.74ZM490.28,431.91c5.76-4.73,14.71,6.34,18.64-4.64-6.81-9.76-26.93-9.52-32.1,1.68-4.01,8.68-2.99,18.41,5.23,24.02,9.4,6.4,22.42,4.64,27.89-5.8-6.73-8.99-9.65.85-17.23-.81-6.81-1.49-6.94-10.77-2.45-14.46ZM533,420.65v21.42c0,1.26-3.1,4.13-4.66,4.27-7.14.66-6.96-18.11-5.76-22.66l-1.22-1.89-9.36-.15c.06,8.14-.36,17.51,2.06,25.36,3.77,12.26,23.5,13.05,27.68.78,1.35-3.97,3.97-24.73,1.31-26.69l-10.04-.44ZM575.74,420.9c-20.32,3.17-18.31,33.97,2.89,35.51,9.31.68,16.32-3.69,17.37-13.33,1.56-14.28-4.72-24.61-20.26-22.18ZM612.74,420.9c-20.32,3.17-18.31,33.97,2.89,35.51,9.31.68,16.32-3.69,17.37-13.33,1.56-14.28-4.72-24.61-20.26-22.18ZM646,429.63l8.29,2.85c1.77-1.28,5.22-3.72,4.6-6.14-1.67-6.46-24.76-11.05-22.95,4.8.89,7.77,14.78,12.36,14.06,15.9-3.3,4.75-8.57-2.38-10.51-2.24-12.47,8.18,6.35,13.72,13.81,11.51,4.27-1.26,7.47-8.63,6.51-13.02-1.59-7.29-12.2-7.02-13.81-13.67ZM774,429.63l8.29,2.85c1.77-1.28,5.22-3.72,4.6-6.14-1.67-6.46-24.76-11.05-22.95,4.8.89,7.77,14.78,12.36,14.06,15.9-3.3,4.75-8.57-2.38-10.51-2.24-12.47,8.18,6.35,13.72,13.81,11.51,4.27-1.26,7.47-8.63,6.51-13.02-1.59-7.29-12.2-7.02-13.81-13.67ZM799.01,442.58l25.05-1.44c3.52-11.44-6.85-21.33-18.42-20.4-16.11,1.29-21.57,23.56-9.13,32.79,7.18,5.33,25.1,5.18,26.35-5.84-6.87-6.08-7.04-.55-12.58.63s-9.84-.19-11.27-5.74ZM967.74,420.9c-20.32,3.17-18.31,33.97,2.89,35.51,9.31.68,16.32-3.69,17.37-13.33,1.56-14.28-4.72-24.61-20.26-22.18ZM1082,429.63l8.29,2.85c1.77-1.28,5.22-3.72,4.6-6.14-1.67-6.46-24.76-11.05-22.95,4.8.89,7.77,14.78,12.36,14.06,15.9-3.3,4.75-8.57-2.38-10.51-2.24-12.47,8.18,6.35,13.72,13.81,11.51,4.27-1.26,7.47-8.63,6.51-13.02-1.59-7.29-12.2-7.02-13.81-13.67ZM1179.01,442.58l25.05-1.44c3.52-11.44-6.85-21.33-18.42-20.4-16.11,1.29-21.57,23.56-9.13,32.79,7.18,5.33,25.1,5.18,26.35-5.84-6.87-6.08-7.04-.55-12.58.63s-9.84-.19-11.27-5.74ZM1264,420.65v21.42c0,1.26-3.1,4.13-4.66,4.27-7.14.66-6.96-18.11-5.76-22.66l-1.22-1.89-9.36-.15c.06,8.14-.36,17.51,2.06,25.36,3.77,12.26,23.5,13.05,27.68.78,1.35-3.97,3.97-24.73,1.31-26.69l-10.04-.44ZM1301.01,442.58l25.05-1.44c3.52-11.44-6.85-21.33-18.42-20.4-16.11,1.29-21.57,23.56-9.13,32.79,7.18,5.33,25.1,5.18,26.35-5.84-6.87-6.08-7.04-.55-12.58.63s-9.84-.19-11.27-5.74ZM1479.01,442.58l25.05-1.44c3.52-11.44-6.85-21.33-18.42-20.4-16.11,1.29-21.57,23.56-9.13,32.79,7.18,5.33,25.1,5.18,26.35-5.84-6.87-6.08-7.04-.55-12.58.63s-9.84-.19-11.27-5.74ZM852.8,429.44c2.81-4.83-7.11-8.37-11.05-7.61-2.02.39-4.53,2.93-6.22,2.86-.51-.02-.42-1.85-1.2-2.04-2.32-.56-5.8.34-8.34-.01l1,33.89h10.01c.96-.98-4.43-18.34,1.93-23.49,3.96-3.21,4.61.61,7.41.37.53-.04,6.27-3.64,6.46-3.97ZM873.99,437.59c-7.77-8.05-4.12-20.38-19.99-14.93l15.49,32.89c6.58,2.63,8.17,1.6,11.05-3.96,2.03-3.91,13.58-27.77,11.46-29.93l-10.84.16-7.17,15.78ZM928,455.03v-33.38h-11.01s.5,2,.5,2c-33.12-13.58-34.58,44.48.5,29.88l.55,3.07c2.21-.31,8.71.85,9.45-1.56ZM1016.8,429.44c2.81-4.83-7.11-8.37-11.05-7.61-2.02.39-4.53,2.93-6.22,2.86-.51-.02-.42-1.85-1.2-2.04-2.32-.56-5.8.34-8.34-.01l1,33.89h10.01c.96-.98-4.43-18.34,1.93-23.49,3.96-3.21,4.61.61,7.41.37.53-.04,6.27-3.64,6.46-3.97ZM1054,421.65l-11.05.46-4.96,15.49c-2.39.53-1.62-.42-2.23-1.3-2.93-4.23-5.44-9.04-7.91-13.56l-9.84,3.4c-.02,1.46,13.94,20,14.81,25.16s-4.84,10.89-3.84,16.19l9.91-.1,15.1-45.74ZM1434,455.03v-33.38h-11.01s.5,2,.5,2c-33.12-13.58-34.58,44.48.5,29.88l.55,3.07c2.21-.31,8.71.85,9.45-1.56ZM1532.8,429.44c2.81-4.83-7.11-8.37-11.05-7.61-2.02.39-4.53,2.93-6.22,2.86-.51-.02-.42-1.85-1.2-2.04-2.32-.56-5.8.34-8.34-.01l1,33.89h10.01c.96-.98-4.43-18.34,1.93-23.49,3.96-3.21,4.61.61,7.41.37.53-.04,6.27-3.64,6.46-3.97ZM1367,439.09c.79,4.83-.58,11.38,0,16.44h8v-17.44c0-3.47,6.14-8.01,9.53-4.51.32.33,2.47,5.21,2.47,5.51v15.94c0,2.68,7.21.05,8.99.49-.06-10.14,1.43-37.83-16.04-32.42-1.86.58-3.8,3.16-5.61,3.33-2.29.22-4.58-3.01-7.05-3.57-4.26-.98-8.02-.09-11.78,1.84l-1.08-2.09-9.45,1.04.94,32.45,8.99-.65c-.65-6.42-2.89-17.19,2.57-21.86,4.56-3.9,8.73.78,9.51,5.51Z"/>
        <path class="st4" d="M1246,312.04l-1.01-2.98c-1.93.19-.62,2.54-3.49,3.05s-12.42-1.17-8.49-5.54c3.08-3.42,12.01-.86,9.99-10.47-11.05,3.25-22.68,2.04-33.99,1,.68,9.3,12,5.45,17.73,10.21,1.93,1.96-.4,10.08,2.34,14.11,2.47,3.64,4.62-.82,6.91,2.08-.2,1.99-11.85,4.96-13.54,2.55-2.41-5.77,3.2-10.63,1.56-16.01-4.66,2.36-13.76.94-17.33,2.15-7.38,2.52,4.98,11.57,4.33,14.78-1.05.1-1.71-4.55-3.52-1-.16.31.51,5.47.72,5.78,2.28,3.37,3.33-3.11,5.33.18,1.89,3.13,1.22,13.47,5.79,16.64,2.99,2.08,15.58,2.32,18.68-.68.34,1.71-.84,2.58-2.03,3.45-3.43,2.52-10.62,5.7-14.68,8.26-1,.63-1.77-.09-1.29,2.23,7.44,1.79,18.29.58,18.51-8.97,2.3.06,8.48,6.44,8.51,8.46-2.56,2.31-10.95,9.07-12.42,11.48-.32.53.12,1.43.41,1.98-1.99.16-5.56-1.07-7.31-.03-.64.38-1.57,4.01-2.92,4.72-3.18,1.68-.78.78-3.01,3.06-.96.98-6.51,3.49-8.11,5.14-9.02-7.34-3.97-21.21-3.6-31.27.21-5.76-.28-11.52-.73-17.21l-7.82-6.21-3.48,9.92c-.13-2.66.34-8.09-.96-10.3-.68-1.16-2.82-.58-4.01-1.16-1.63-.8-5.16-9.94-5.77-12.22-2.78-10.4-.21-29.64,8.37-36.95,1.08-.92,13.68-8.35,14.51-8.51,4.27-.81,9.51,1.42,13.85,1.38l.47-1.97c3.47,4.1,5.57,1.52,9.85,4.13s11.67,13.56,11.67,18.27v16.44Z"/>
        <path class="st4" d="M913.29,388.49c-6.4-8.02-7.39-29.62-3.17-38.95,8.01-17.67,29.33-24.23,46.56-15.76,36.23,17.83,22.61,73.47-20.1,67.86-6.63-.87-19.2-8.02-23.29-13.15ZM936.74,345.16c-16.57,2.81-16.63,22.29-9.77,34.17.95,1.65,3.23,5.42,4.72,6.26,9.18,5.19,27.08,1.3,29.07-10.51,2.94-17.48-3.8-33.34-24.02-29.92Z"/>
        <path class="st4" d="M1064,352.89l17.94-23.38,17.06.47c.36,1.61-.27,2.29-.98,3.5-3.29,5.67-11.93,13.37-16.42,19.51-1.65,2.26-6.88,8.16-6.66,10.31l25.92,33.08,1.14,5.34h-16.5l-21.5-25.91v25.91h-15.99c1.21-23.77-2.8-47.58-.12-71.17l16.11.42v21.92Z"/>
        <path class="st4" d="M819.84,377.95c2.2,4.33,11.55,14.89,16.28,9.37,5.15-6.01-20.09-24.74-23.54-30.52-12.78-21.46,14.49-37.19,32.44-23.36,10.15,7.82,7.43,10.71-2.54,16.53-2.17,0-8.13-12.52-15.08-7.13-1.44,1.21-1.61,2.58-1.26,4.34.92,4.61,16.6,15.74,20.67,21.34,9.63,13.24,9.27,27.85-7.83,33.7-13.64,4.67-25.79-3.6-30.97-15.97.05-2.39,9.58-9.59,11.82-8.3Z"/>
        <path class="st4" d="M873.99,401.72c-5.4-2.02-10.56.06-15.99,1,.87-8.2-1.07-16.43-1.05-24.46.02-11.82,1.37-23.84,1.09-35.87-.09-3.9-3.64-11.3,2.51-12.41,10.29,1.86,21.87-.4,31.69,3.24,12.12,4.5,12.53,21.05,5.77,30.15-2.75,3.7-11.07,7.39-15.59,8.38-2.71.59-7.37-1.11-8.92,2.07-1.99,4.09-.19,22.52.5,27.9ZM874.01,357.87c16.3,1.24,13.2-13.33-1.01-11.96l1.01,11.96Z"/>
        <path class="st4" d="M1013.78,329.26c11.76-1.5,36.15-.55,18.51,14.54-3.87.13-7.67-1.68-11.52-1.59-32.89.77-26.3,55.19,8.2,45.05,1.59-.47,3.46-2.2,4.71-2.31,3.4-.33,6.49,8.86,8.19,11.33-16.47,11.71-47.5,7.99-54.81-13.04-8.51-24.5-2.2-50.27,26.72-53.97Z"/>
        <path class="st4" d="M1247,404.71c-.78-3.21,2.29-1.29,3.5-3.01,3.37-4.82,1.62-1.4,4.28-3.22.61-.42-.32-2.74,2.23-1.74l.55,3.06,6.45-.07-3.01-8.96-1.97.48c3.22,4.76-4.94,7-3.03.52-1.63-.43-.61,1.4-1.17,1.74-1.12.68-2.59.18-3.82.26l2.01,1.47-1.51,2.5c-2.9-2.01-2.97-3.39-3.46-6.51l-6.9-.61-1.1-4.4c-2.08.04-3.57,1.35-5.01-.92l4.48-8.48,2.67,4.87,5.82.11-1.98-3.98,1.98-.5c-1.04-2.05-4.15-1.05-5.01-1.53-.35-.2.36-7.14,3-6.94l1.5,1.98,2.51-2.49-4.99-2.5,1.98-1.49,3.02,1.5-1.48-3.99c9.23,4.76,19.08,7.64,26.77,14.91,1.59,1.5.6,4.18,5.27,5.02l.49-1.92,1.94-.06c4.16,8.83,9.01,14.28,7.02,24.91h-43ZM1258.99,374.82c-3.19,1.53-6.81,1.52-9.98,0-.57,3.13.97,4.04,4,3.99l-1.01,2.97h1.98c-.01-2.33,2.99-4.03,5.01-2.98v-3.98ZM1271.45,387.38c-.68-.86-1.27-1.75-1.96-2.6l-2.53,2.59,2.04,7.37c3.29,1.06,4.26-5.48,3.75-6.81-.07-.18-1.02-.19-1.3-.55Z"/>
        <path class="st4" d="M736,410.69l-.99,12.96c8.94-6.99,23.93-1.62,25.75,9.71,2.14,13.31-9.57,29.79-23.27,20.21-.47,4.49-12.51,3.87-13.35,1.34l-.09-43.16,11.95-1.05ZM739.66,430.78c-4.66,3.63-5.35,12.44.59,15.03,11.69,5.1,14.63-19.03-.59-15.03Z"/>
        <path class="st4" d="M1367,439.09c-.77-4.73-4.95-9.41-9.51-5.51-5.46,4.68-3.22,15.44-2.57,21.86l-8.99.65-.94-32.45,9.45-1.04,1.08,2.09c3.76-1.93,7.52-2.82,11.78-1.84,2.47.57,4.76,3.79,7.05,3.57,1.81-.17,3.75-2.76,5.61-3.33,17.47-5.41,15.98,22.28,16.04,32.42-1.78-.44-8.99,2.2-8.99-.49v-15.94c0-.3-2.15-5.18-2.47-5.51-3.39-3.49-9.53,1.04-9.53,4.51v17.44h-8c-.58-5.06.79-11.61,0-16.44Z"/>
        <path class="st4" d="M1241.01,411.68l-1,44.85c-2.54-.36-6.02.55-8.34-.02-.77-.19-.68-2.01-1.23-2.04-1.26-.06-3.48,1.59-5.17,1.82-12.07,1.62-18.75-2.73-19.32-15.19-.79-17.26,8.32-26.12,25.04-18.46v-10.96s10.01,0,10.01,0ZM1221.61,429.87c-7.25,1.38-7.7,18.06,2.8,16.67,6.59-.87,10.63-12.69,4.56-15.39-.94-.42-6.58-1.43-7.36-1.28Z"/>
        <path class="st4" d="M714.64,419.02c7.72,7.96,6.96,24.07-1.15,31.52-12.06,11.09-33.19,4.7-36.05-11.9-4.05-23.52,21.4-35.91,37.2-19.63ZM695.74,420.89c-16.01,2.78-10.1,32.37,8.28,25.19,10.66-4.16,8.03-28.03-8.28-25.19Z"/>
        <path class="st4" d="M1448,455.53l-9,1-1-44.85,10.58.93c1.27,1.77-.64,6.83-.62,9.51.01,1.52-.64,2.91,1.53,2.53,5.43-8.75,8.59-15.33,20.51-12.96l-14.85,20.25,16.87,23.09c-12.52,5.09-15.08-5.46-21.72-13.17-.62-.72.05-1.87-2.29-1.27v14.95Z"/>
        <path class="st4" d="M1147.01,410.68l1,13.96c24.4-10.23,19.19,17.01,20,31.89h-11.01c-1.17-4.88,4.34-25.8-4.45-24.96-6.25.59-7.1,20.09-6.54,24.96h-10.01s1.14-44.21,1.14-44.21l1.5-1.49,8.37-.14Z"/>
        <path class="st4" d="M928,455.03c-.75,2.42-7.24,1.25-9.45,1.56l-.55-3.07c-35.08,14.6-33.62-43.45-.5-29.88l-.5-2h11.01s0,33.37,0,33.37ZM905.35,430.98c-8.92,9.07,6.45,24.52,12.14,11.6,4.19-9.51-6.27-17.57-12.14-11.6Z"/>
        <path class="st4" d="M1434,455.03c-.75,2.42-7.24,1.25-9.45,1.56l-.55-3.07c-35.08,14.6-33.62-43.45-.5-29.88l-.5-2h11.01s0,33.37,0,33.37ZM1411.35,430.98c-8.92,9.07,6.45,24.52,12.14,11.6,4.19-9.51-6.27-17.57-12.14-11.6Z"/>
        <path class="st4" d="M1479.01,442.58c1.43,5.55,5.99,6.86,11.27,5.74,5.54-1.18,5.71-6.71,12.58-.63-1.25,11.02-19.17,11.17-26.35,5.84-12.44-9.23-6.98-31.5,9.13-32.79,11.57-.93,21.94,8.97,18.42,20.4l-25.05,1.44ZM1495,433.6c-2.96-5.41-9.24-4.78-12.99-.48l12.99.48Z"/>
        <path class="st4" d="M1301.01,442.58c1.43,5.55,5.99,6.86,11.27,5.74,5.54-1.18,5.71-6.71,12.58-.63-1.25,11.02-19.17,11.17-26.35,5.84-12.44-9.23-6.98-31.5,9.13-32.79,11.57-.93,21.94,8.97,18.42,20.4l-25.05,1.44ZM1317,433.6c-2.96-5.41-9.24-4.78-12.99-.48l12.99.48Z"/>
        <path class="st4" d="M1179.01,442.58c1.43,5.55,5.99,6.86,11.27,5.74,5.54-1.18,5.71-6.71,12.58-.63-1.25,11.02-19.17,11.17-26.35,5.84-12.44-9.23-6.98-31.5,9.13-32.79,11.57-.93,21.94,8.97,18.42,20.4l-25.05,1.44ZM1195,433.6c-2.96-5.41-9.24-4.78-12.99-.48l12.99.48Z"/>
        <path class="st4" d="M799.01,442.58c1.43,5.55,5.99,6.86,11.27,5.74,5.54-1.18,5.71-6.71,12.58-.63-1.25,11.02-19.17,11.17-26.35,5.84-12.44-9.23-6.98-31.5,9.13-32.79,11.57-.93,21.94,8.97,18.42,20.4l-25.05,1.44ZM815,433.6c-2.96-5.41-9.24-4.78-12.99-.48l12.99.48Z"/>
        <path class="st4" d="M447.01,442.58c1.43,5.55,5.99,6.86,11.27,5.74,5.54-1.18,5.71-6.71,12.58-.63-1.25,11.02-19.17,11.17-26.35,5.84-12.44-9.23-6.98-31.5,9.13-32.79,11.57-.93,21.94,8.97,18.42,20.4l-25.05,1.44ZM463,433.6c-2.96-5.41-9.24-4.78-12.99-.48l12.99.48Z"/>
        <path class="st4" d="M967.74,420.9c15.54-2.43,21.82,7.9,20.26,22.18-1.05,9.64-8.05,14.01-17.37,13.33-21.2-1.55-23.21-32.34-2.89-35.51ZM970.65,429.92c-8.9.46-8.62,14.76-.93,16.44,12.28,2.68,11.85-17.01.93-16.44Z"/>
        <path class="st4" d="M575.74,420.9c15.54-2.43,21.82,7.9,20.26,22.18-1.05,9.64-8.05,14.01-17.37,13.33-21.2-1.55-23.21-32.34-2.89-35.51ZM578.65,429.92c-8.9.46-8.62,14.76-.93,16.44,12.28,2.68,11.85-17.01.93-16.44Z"/>
        <path class="st4" d="M612.74,420.9c15.54-2.43,21.82,7.9,20.26,22.18-1.05,9.64-8.05,14.01-17.37,13.33-21.2-1.55-23.21-32.34-2.89-35.51ZM615.65,429.92c-8.9.46-8.62,14.76-.93,16.44,12.28,2.68,11.85-17.01.93-16.44Z"/>
        <path class="st4" d="M391.07,419.73c-2.58,3.67,7.36,9.83,9.32,11.99,19.96,21.97-10.55,35.86-21.21,14.33l6.33-4.48c4.54,1.84,5.54,7.44,11.48,5.99.18-10.88-19.35-16.4-16.57-27.9,2.95-12.18,22.12-11.36,26.32-.48l-6.27,5.42c-.97-2.66-7.11-8.13-9.41-4.86Z"/>
        <path class="st4" d="M420,455.53l-8.54.75-1.46-1.25v-41.85c0-1.03,2.43-1.52,3.49-1.58,2.13-.13,12.3.92,14.77,1.32,12.64,2.08,12.69,17.47,2.11,22.55-3.69,1.78-7.41,1.49-10.37,3.61v16.44ZM426.9,427.54l-.88-4.42-6.01-1.47v6.98s6.9-1.09,6.9-1.09Z"/>
        <path class="st4" d="M490.28,431.91c-4.49,3.69-4.37,12.97,2.45,14.46,7.57,1.66,10.5-8.18,17.23.81-5.47,10.44-18.49,12.21-27.89,5.8-8.23-5.61-9.24-15.34-5.23-24.02,5.17-11.2,25.29-11.44,32.1-1.68-3.93,10.98-12.88-.09-18.64,4.64Z"/>
        <path class="st4" d="M1054,421.65l-15.1,45.74-9.91.1c-1-5.3,4.69-11.19,3.84-16.19s-14.83-23.71-14.81-25.16l9.84-3.4c2.46,4.52,4.98,9.33,7.91,13.56.61.88-.16,1.83,2.23,1.3l4.96-15.49,11.05-.46Z"/>
        <path class="st4" d="M533,420.65l10.04.44c2.66,1.96.04,22.72-1.31,26.69-4.18,12.27-23.91,11.48-27.68-.78-2.42-7.86-2-17.22-2.06-25.36l9.36.15,1.22,1.89c-1.2,4.55-1.38,23.32,5.76,22.66,1.56-.14,4.66-3.01,4.66-4.27v-21.42Z"/>
        <path class="st4" d="M1264,420.65l10.04.44c2.66,1.96.04,22.72-1.31,26.69-4.18,12.27-23.91,11.48-27.68-.78-2.42-7.86-2-17.22-2.06-25.36l9.36.15,1.22,1.89c-1.2,4.55-1.38,23.32,5.76,22.66,1.56-.14,4.66-3.01,4.66-4.27v-21.42Z"/>
        <path class="st4" d="M1129.85,445.7l3.23,7.2c-10.77,6.5-28.69,4.71-33.36-8.55-7.62-21.63,6.07-38.01,28.55-32.43,2.75.68,4.46,1.56,2.75,4.27-4.55,7.2-6.1,2.41-13.46,3.55-15.54,2.4-13.25,29.6,4.95,27.89,2.29-.22,5.94-2.74,7.35-1.92Z"/>
        <path class="st4" d="M873.99,437.59l7.17-15.78,10.84-.16c2.12,2.16-9.44,26.02-11.46,29.93-2.88,5.57-4.48,6.6-11.05,3.96l-15.49-32.89c15.87-5.44,12.21,6.88,19.99,14.93Z"/>
        <path class="st4" d="M1082,429.63c1.61,6.65,12.21,6.39,13.81,13.67.96,4.39-2.24,11.76-6.51,13.02-7.46,2.2-26.28-3.33-13.81-11.51,1.94-.14,7.21,6.98,10.51,2.24.72-3.54-13.17-8.13-14.06-15.9-1.81-15.86,21.29-11.27,22.95-4.8.63,2.42-2.82,4.86-4.6,6.14l-8.29-2.85Z"/>
        <path class="st4" d="M774,429.63c1.61,6.65,12.21,6.39,13.81,13.67.96,4.39-2.24,11.76-6.51,13.02-7.46,2.2-26.28-3.33-13.81-11.51,1.94-.14,7.21,6.98,10.51,2.24.72-3.54-13.17-8.13-14.06-15.9-1.81-15.86,21.29-11.27,22.95-4.8.63,2.42-2.82,4.86-4.6,6.14l-8.29-2.85Z"/>
        <path class="st4" d="M646,429.63c1.61,6.65,12.21,6.39,13.81,13.67.96,4.39-2.24,11.76-6.51,13.02-7.46,2.2-26.28-3.33-13.81-11.51,1.94-.14,7.21,6.98,10.51,2.24.72-3.54-13.17-8.13-14.06-15.9-1.81-15.86,21.29-11.27,22.95-4.8.63,2.42-2.82,4.86-4.6,6.14l-8.29-2.85Z"/>
        <polygon class="st4" points="946 456.53 935.44 455.56 935.01 431.61 929.99 431.62 929.97 423.21 935.93 421.03 935 411.68 945.01 411.68 944.99 422.65 951 422.66 950.93 431.53 946 432.61 946 456.53"/>
        <path class="st4" d="M852.8,429.44c-.19.33-5.93,3.93-6.46,3.97-2.8.23-3.45-3.58-7.41-.37-6.36,5.16-.98,22.51-1.93,23.48h-10.01s-1-33.88-1-33.88c2.54.36,6.02-.55,8.34.01.77.19.68,2.02,1.2,2.04,1.69.06,4.2-2.48,6.22-2.86,3.94-.76,13.86,2.78,11.05,7.61Z"/>
        <path class="st4" d="M1016.8,429.44c-.19.33-5.93,3.93-6.46,3.97-2.8.23-3.45-3.58-7.41-.37-6.36,5.16-.98,22.51-1.93,23.48h-10.01s-1-33.88-1-33.88c2.54.36,6.02-.55,8.34.01.77.19.68,2.02,1.2,2.04,1.69.06,4.2-2.48,6.22-2.86,3.94-.76,13.86,2.78,11.05,7.61Z"/>
        <path class="st4" d="M1532.8,429.44c-.19.33-5.93,3.93-6.46,3.97-2.8.23-3.45-3.58-7.41-.37-6.36,5.16-.98,22.51-1.93,23.48h-10.01s-1-33.88-1-33.88c2.54.36,6.02-.55,8.34.01.77.19.68,2.02,1.2,2.04,1.69.06,4.2-2.48,6.22-2.86,3.94-.76,13.86,2.78,11.05,7.61Z"/>
        <path class="st4" d="M1288.01,410.68l1,44.85-8.38.92c-1.22-.42-1.41-1.3-1.62-2.42-2.18-11.85,2.34-28.42-1.06-40.82.61-4.2,7.04-2.07,10.06-2.52Z"/>
        <path class="st4" d="M557.01,410.68l1,44.85-8.38.92c-1.22-.42-1.41-1.3-1.62-2.42-2.18-11.85,2.34-28.42-1.06-40.82.61-4.2,7.04-2.07,10.06-2.52Z"/>
        <path class="st4" d="M1138,390.26c.48-2.18,7.57-9.74,8.21-13.24l4.79-.21-2.06,2.56,1.06,2.41-3-1-.99,2.5c.01.68,6.48,3.33,7.66,4.7.21.24-.49,1.5.69,2.79,1.76,1.94,5.06,3.03,6.63,5.47l-1.99,1.97,9,6.48h-30c.62-4.23-.85-10.57,0-14.45Z"/>
        <path class="st4" d="M1181,404.71h-10s2.94-1.04,2.94-1.04l.07-3.95,1.98,1.01c-.01-6.34,1.2-12.69-3.94-17.49-1.53-1.43-17.11-8.96-18.75-9.2-2.03-.29-3.57,2.8-5.29,1.28,3.64-4.49,17.71-.62,22.25,1.54,1.26.6.08,2.75,2.73,1.94-.89-3.45,3.82-5.22,4.47-6.92.32-.84-.5-4.75-.49-6.51,0-1.16-.66-3.75,1.03-3.5.1,4.39,1.9,10.25,1.8,14.44-.07,3.14-1.68,6.94-1.83,10.03-.3,6.37,1.56,12.47,3.04,18.37Z"/>
        <path class="st4" d="M1190.06,353.94l5.93-2.05c.47,2.24-1.59,14.92-3.49,14.93-2.25-1.4-3.23-12.13-2.44-12.88Z"/>
        <path class="st4" d="M1239,337.94c-5.8-2.93-9.8-1.84-15.79-1.27-1.1.1-3.41,1.18-3.2-.7,6.47-1.54,14.2-4.36,18.99,1.97Z"/>
        <path d="M936.74,345.16c20.22-3.43,26.97,12.44,24.02,29.92-1.99,11.81-19.89,15.7-29.07,10.51-1.49-.84-3.76-4.61-4.72-6.26-6.86-11.88-6.8-31.36,9.77-34.17Z"/>
        <path d="M874.01,357.87l-1.01-11.96c14.21-1.37,17.31,13.2,1.01,11.96Z"/>
        <path d="M1258.99,374.82v3.98c-2.01-1.04-5.02.65-5.01,2.97h-1.98s1.01-2.96,1.01-2.96c-3.03.05-4.57-.86-4-3.99,3.18,1.52,6.79,1.53,9.98,0Z"/>
        <path d="M1271.45,387.38c.28.36,1.24.38,1.3.55.51,1.32-.46,7.87-3.75,6.81l-2.04-7.37,2.53-2.59c.69.85,1.28,1.74,1.96,2.6Z"/>
        <path d="M739.66,430.78c15.22-4,12.28,20.13.59,15.03-5.94-2.59-5.25-11.4-.59-15.03Z"/>
        <path d="M1221.61,429.87c.78-.15,6.42.87,7.36,1.28,6.07,2.69,2.04,14.51-4.56,15.39-10.5,1.39-10.05-15.29-2.8-16.67Z"/>
        <path d="M695.74,420.89c16.31-2.83,18.94,21.03,8.28,25.19-18.38,7.18-24.29-22.42-8.28-25.19Z"/>
        <path d="M905.35,430.98c5.87-5.97,16.32,2.09,12.14,11.6-5.69,12.92-21.06-2.53-12.14-11.6Z"/>
        <path d="M1411.35,430.98c5.87-5.97,16.32,2.09,12.14,11.6-5.69,12.92-21.06-2.53-12.14-11.6Z"/>
        <path d="M1495,433.6l-12.99-.48c3.75-4.3,10.04-4.92,12.99.48Z"/>
        <path d="M1317,433.6l-12.99-.48c3.75-4.3,10.04-4.92,12.99.48Z"/>
        <path d="M1195,433.6l-12.99-.48c3.75-4.3,10.04-4.92,12.99.48Z"/>
        <path d="M815,433.6l-12.99-.48c3.75-4.3,10.04-4.92,12.99.48Z"/>
        <path d="M463,433.6l-12.99-.48c3.75-4.3,10.04-4.92,12.99.48Z"/>
        <path d="M970.65,429.92c10.92-.57,11.35,19.12-.93,16.44-7.69-1.68-7.97-15.98.93-16.44Z"/>
        <path d="M578.65,429.92c10.92-.57,11.35,19.12-.93,16.44-7.69-1.68-7.97-15.98.93-16.44Z"/>
        <path d="M615.65,429.92c10.92-.57,11.35,19.12-.93,16.44-7.69-1.68-7.97-15.98.93-16.44Z"/>
        <polygon points="426.9 427.54 420 428.63 420 421.65 426.02 423.12 426.9 427.54"/>
      </g>
    </g>
    <path class="st5" d="M1395.9,295.45c.11.14-.41.25-.58.37,1.49-.35,2.78-.62,3.53-.81-.69.12-.67-.08-.26-.27-.76.26-.92.15-1.18.33.62.07-.58.19-1.5.39ZM1376.72,299.1c-.05.07-.24.15-.59.2.41.12-.1.27.37.25-.08-.1,1.47-.47.54-.35-.78.3.21-.19.58-.29-.4.1-1.17-.03-1.22.17.2-.04.38-.07.33.02ZM1374.67,299.68c-.46.08-.08-.12.26-.22.11.1.48.49.95.13-1.19.05.28-.42-.37-.41-.22.29-.96.15-1.5.31-.19.23.45.46.67.19ZM1385.91,351.78c.22.63.24-.85.08-.8.1.84-.29-.31-.38-1.02-.24.31-.12.53-.4.45.11,1.16.26-.08.38.67-.03.64-.09.06-.26.3.06.29.12.58.18.87.11-.13.22-.26.33-.39-.06-.35-.12-.71.01-.73.06.29.02.4.06.65ZM1382.34,336.13c.14.9-.2-.37-.27-.11.17.74.33,1.52.51,1.3-.23-.58-.04-1.25-.24-1.18ZM1384.61,346.72c.1.49-.16.34-.08.79.21-.19.03,1.38.24,1.18.08-.76-.01-1.08-.16-1.98ZM1386.74,358.57c.33-.5.54,1.65.55,2.29.34-.56-.45-3.77-.55-2.29ZM1389.99,296.02c.26-.34-.96.06-1.19.17.34-.31.16-.34-.59-.28.3.27-.8.38-1.45.87-.19-.21.68-.47-.34-.34-.78.25-1.48.27-2.68.47-.24.31.29.25.61.28-.82.11-.57.28-1.17.41.1-.15-.4-.14-.59.04,1.05-.13-1.35.59-.25.46.05-.11.31-.12.57-.12-.32-.28,1.13-.46,1.44-.7.62.44,2.13-.07,3.88-.64.11-.17-.44-.12-.01-.25.06.1.64-.04.9-.02-.03-.13.2-.25.57-.36.03.04.06.08.29.01ZM1374.11,303.09c-.2-.13-.33-1.49-.56-1.12.21.78.2,1.1-.05.98.11.6.23.65.33,1.19.35.24.12-.69.19-1.03.04.18.14.33.08-.02ZM1374.31,305.6c.34.36-.26.3-.18.72-.11-.75-.18-1.46-.47-1.46.26.84.34,1.22.44,2.14.16-.97.46.86.78,1.03-.08-.7-.09-1.26-.29-2.17-.08.18-.43-1.12-.29-.25ZM1372.19,299.76c-.06-.3-.12-.6-.19-.93-.24,0-.03,1.2-.4.43.32,1.34.28-.13.59.49ZM1374.18,310.92c.27.67.55,1.2.82,1.97-.19.37-.94-.94-.65-.37.14.86.34.15.49.8-.46-.52.28,3.06.63,3.05-.12-.53-.08-.75.1-.7-.32-1.42-.25-2.07-.41-3.17-.46-.65-1-2.89-.95-4.22-.61-.65-.42-2.28-1-3.27.08-.34.45.84.31-.1-.38-.52-.36-.02-.65-.79.1-.09.31.04.25-.39-.14.1-.25-.4-.36-.56.38,1.67-.35,0-.13,1.34.23.51.28-.69.57.81.04.56.07,1.09-.19,1.05.09.42.1.67.11.96.17-.67.36,2.14.42.82-.02-.09-.21-.92-.24-1.55.36.45.36,1.16.45,2.16.27.32.2-.27.36.19,0,.81-.39-.15-.39.47-.06-.23-.13-.6-.2-.57.5,1.2.35,1.81.51,2.47.05-.51.35.67.16-.39ZM1462.26,277.46c-.85.2-1.1.47-1.52.73,1.2-.33,1.61-.75,2.57-1.11-.98.28-1.69.1-2.11.36.36,0,1.12-.16,1.06.02ZM1457.96,278.35c-.58.05-1.35.55-.79.41.19-.19.48-.06.68-.23-.85.11.8-.29.52-.43-.55.12-.67.06-.44-.15-.37.09-.89.17-.99.28.23-.03.6-.12.55-.03-.18.04-.37.09-.35.15.54-.12.74-.09.82,0ZM1467.23,278.9c.31,1.67.51.49.91,2.03,0-.83-.35-2.25-.28-2.92-.1.23-.21-.15-.32.05.11.61.22.59.33,1.19-.24.05-.17-.05-.32.44-.09-.43-.12-.76-.13-1.05-.09.28-.26-.23-.19.27ZM1458.1,277.67c-.74.13.48-.32.52-.43-.58.17-1.33.32-1.65.51.56-.14.68.24,1.13-.07ZM1477.69,320.35c-.09.17-.5-.36-.33.34.17-.04.69,1.21.62.63-.21-.19-.28-.51-.29-.97ZM1476.8,318.39c.13.09.26.47.39.29-.31-.99-.36-2.14-.37-3.01-.11.02-.21.04-.32.05.41,1.57.31,2.01.3,2.66ZM1442.89,362.34c-.9.33-1.48.32-1.53.57.95-.13.79-.28,1.59-.41.09.06.61.07.66-.06-.45.07-.41-.09-.72-.1ZM1406.69,365.91c.9,0,1.56-.6,1.05-.62.14.25-1.26.36-1.05.62ZM1467.56,301.78c.15-.38.27.26.42.04-.26-.46-.42-2.38-.43-1.67.05.63-.16.78.01,1.63ZM1466.83,297.08c-.19.29-.94-.48-.98.81.23.1.45.07.69-.22,0,.79.27.93.15,1.5.91.82-.27-.93.14-2.09ZM1450.79,283.93c.24-.2.3-.03.55-.04.29-.42,1.47-.18,1.81-.45-.27-.07-1.04.09-1.31.02.42-.12.55-.21.89-.19.06-.24-.8-.07-.93-.21-.18.19-.46.05-.66.22,1.07-.08-1.02.78-.36.65ZM1467.31,279.64c-.16-.78-.64-.61-.58-.42.08-.12.26.74.2.94-.05-.21-.09-.38-.13-.24.31,1.36.38.65.58.81-.08-.88-.24-.94-.2-1.35.04.18.09.35.14.25ZM1468.88,284.85c-.3-.31-.6-.8-.39-1.52-.28-.35-.15.65-.39.09-.09-1.02-.2-.33-.4-1.91-.19.6-.39-.47-.58-.44.08.63.46,1.06.33,1.58-.1-.49-.23.03-.06.08.31.8,0-1.49.39-.5-.2.69.62,1.79.85,2.91.05-.6.42.56.26-.3ZM1468.43,304.42c.15-.15.24.98.36,1.38-.07.04-.13-.3-.19-.52-.04.15-.08.32-.03.63-.22-.13-.08-1.06-.14-1.49ZM1465.75,290.29c.2.7-.36.12-.15.85-.08.15-.43-1.29-.31-.34-.38-.99.42-.36.46-.51ZM1409.86,292.07c-.12.19-1.14.31-1.23.5-.52-.38-1.57.62-1.48.23-.24.09-.47.18-.91.27.9-.61,2.73-.84,3.62-.99ZM1412.55,291.35c.72-.14.03.27-.07.34-.73.19-.63-.02-1.48.23.32-.36,1.03-.18,1.55-.57ZM1465.13,284.89c-.21-.34-.41-.78-.61-1.77.26.47.52.59.61,1.77ZM1463.91,281.01c.09.3.37-.12.12-.19-.02-.1-.03-.16-.04-.21-.08,0-.03-.03.05-.07.15-.08.4-.18.08-.12-.08.02-.21.04-.38.09.12-.04.26-.09.42-.15.19.51.42,1.33.42,1.93-.17.2-.32-1-.49-.79-.06.02-.03.2,0,.37-.12.03-.05-.4-.18-.87ZM1459.16,281.21c-.71,0,.79-.17.11.22-.71.25-1.46.48-1.76.77-.96-.13,1.56-.66,1.65-.99ZM1475.51,333.46c-.23-.44-.45-.82-.65-1.54.25.12.47.58.65,1.54ZM1467.39,294.23c.13.02.05.4.18.86-.4-.48-.39-1-.75-2.42.04-.04.09-.09.14-.13-.06-.28-.12-.6-.18-.88.49,1.06.4,1.53.61,2.93.07,0,.04-.17.01-.35ZM1467.83,295.57c.06.36-.04.23-.07.06-.16.6.3,1.63.29,2.17-.16.19-.43-1.31-.15.45-.22-.19-.41-1.82-.61-2.54-.15.33.08,1.36-.18,1.5-.05-1-.15-2.08.14-2.5.29,1.29.39.67.59.86ZM1460.47,280.77c.12-.12.32-.11.29-.06.74-.14,1.02-.33,1.37-.53.39-.05.11.18.05.32-.55-.09-.64.25-1.54.4.13-.12.04-.15-.17-.13ZM1469.25,301.64c.13.67-.06.75-.24.83,0-.29-.06-.71-.17-1.22.14.04.25.88.41.39ZM1455.92,281.39c.39-.05-.1.17-.43.25.7.11-.79.56-1.01.86.52-.32,1.62-.42,1.88-.55.31,0-.24.32.67.19-.26.26-1.16.25-.79,0-.46.4-1.24.2-1.35.53-1.37.35-1.55.18-1.5-.1,1.23-.14.85-.5,1.94-.65.05-.09-.31,0-.53.02.19-.2.73-.37,1.12-.56ZM1473.04,319.96c-.12-.02-.24-.04-.19.3-.16.12-.26-.82-.42-.84-.04-.31.12-.21.04-.61.15.13.26.91.45.57-.04-.26-.1-.28-.15-.31,0-.62.24.3.27.89ZM1396.86,293.78c-.17-.04-.67.06-.57-.12.44-.05.75-.03,1.19-.08-.85.25-.75.56-1.83.78.35-.19.28-.42,1.21-.58ZM1477.07,350.69c1.13-.19,1.23-.2,2.09-.42-.02-.09-.05-.19-.07-.3-.12-.1-.16-.05-.14.16-.16-.32-.19-.67-.24-1.14.12.1.11.32.06.29.4,1.08.24.28.47.3.12.34.19.64.23.9-.81.14-1.65.13-1.77.4-.51.04-.05-.11-.65-.19ZM1473.73,322.93c.27.15-.03.46.1.86-.29-.3-.34-1.15-.53-.59-.25-.85-.26-.91-.36-1.77-.33-.53.21-.03.27.88.08-.11.02-.52.12-.57-.61-.56-.15-2.09-.32-1.17.11.26.24.42.36.57-.17.21.35,2.22.36,1.79ZM1471.66,314.1c.09.13.19.29.29.23.34.38-.27.24-.19.67.09.34.19.2.3.24.05.53.1.94.24,1.18.04.82-.41-.88-.56-1.12-.12-.57.14-.42-.09-1.21ZM1471.36,311.04c.02.21.05,1.21.25,1.19.07,1.26-.36.25-.08,1.6-.1-.06-.17-.59-.28-.56-.03-.53-.07-1.07.21-.99-.16-.59-.11-.79-.17-1.21-.06.17-.08.42.03.94-.18.14-.36-.02-.49-.79.13-.41.35-.24.54-.17ZM1465.52,283.24c-.1.03-.2-.65-.31-1.1-.04.8.55,3.05.74,3.18.01.31.03.62.12.61-.06.04-.02.82-.13.53-.06.14.07.63-.02.74.23.83.09-.43.26-.31.03,1.28.14.87.43,2.07-.23.01-.46-1.43-.7-1.01.02-1.23-.34-2.11-.67-2.45.49.53-.08-3.1-.47-4.63-.1.23-.19-.33-.4-.82-.03.01-.06.02-.1.04-.5.29-.28-.04.22-.22.04.1.08.26.1.49.05-.09.02-.32-.03-.59-.41.08-1,.25-1.29.28.72-.29.45-.35.82-.49,1.19-.26.07.05.14.21.13-.03.25-.05.38-.08.04.17.07.34.11.52-.03-2.04.51,2.18.24.77.23,1.24.44.98.55,2.27ZM1474.21,327.6c-.11-.07-.11-.32-.07-.31-.09-.37-.32-.4-.25-.03-.4-.52.14-.42-.22-1.44.3.45.48.66.11-.27.09-.72.52,1.73.42,2.05ZM1474.56,326.49c.08-.1-.26.64.14,1.45.2,1.04-.41-.67-.2.25-.21-.78-.21-1.7-.44-2.91.1-.28.4,1.67.29.59.11.07.11.32.06.32.03.23.09.26.15.3ZM1471.32,352.37c-.34.05-.23-.04-.08-.07-.16-.07-.66.05-.58.12-.49.08.12-.17-.45-.07-.27-.11.86-.16.95-.12.68-.13-.14-.26-.08-.39.58-.12.59.1,1.35-.12-.35.21-.64.42-1.1.64ZM1459.07,280.5c.58-.08-.9.55-1.09.96-.67.17-.75.1-1.14.16.32-.23,1.03-.4,1.42-.62.11-.34-.97.26-1.09.06-.13-.34,1.42-.15,1.9-.56ZM1475.38,332.05c.01.68-.48-1.15-.66-1.57-.08-.02-.17-.04-.25-.05.18-.91.59.45.91-.36.37,1.19.56,1.7.64,2.69-.11-.08-.1-.3-.06-.29-.19-.76-.44-.33-.14.51-.18-.27-.32-.98-.48-1.51.1.16.2.35.31.35-.08-.63-.25-.44-.35-.91-.12-.03-.1,1.07.08,1.14ZM1474.47,328.46c.1.1.18.61.29.63-.1-.9.24.15.55-.49.02,1.15-.5,1.44-1.02-.17-.19-1.13.37,1.19.17.03ZM1428.32,361.68c-.76.17-.95.07-1.54.15.22-.23,1.87-.47,1.54-.15ZM1479.01,345.24c.05.31-.06.1-.09-.05-.11.02.07.69.15,1.15-.33-.78-.23,0-.55-.31.08.35.09.51.03.53.53.33.09,1.69-.37-.21.36.51.31.35.25-.36-.39-.96-.27-1.48-.65-1.93-.08-.53.04-.64-.12-1.37-.26-.28-.51-1-.79-.64-.26-1.27.57-.11.42-1.14-.38-1.08-.21.37-.48.04-.05-.26-.15-.25-.24-.37-.05-.36.19-.25.27.12.07-.07.08-1-.18-.85,0-.54,1.03,1.3.9,1.99.06.47.6.73.45.21.28.29-.14.98.37.99.08.41.16.79.25,1.2-.08-.1-.15-.34-.24-.39.08.38.16.79.25,1.19.06-.28.16-.23.37.2ZM1424.38,362.58c-.33.25-1.89.42-2.71.64.17-.41,2.15-.28,2.42-.74.47-.07-.27.2.29.1ZM1453.98,356.45c.82.01-.84.1-1.5.31.83-.21.36-.46,1.25-.67-.26.15-.16.2.42.08.22.07-1.06.41-.17.28ZM1476.29,333.68c.21-.02.31,1.19.54,1.01-.18.57.15,1.28.08,1.96.13.26.5.32.78,1.4-.23-.06-.28-.57-.36-.14.16.95.42.81.56,1.89-.48-.36.4,2.31-.1,1.86-.09-.56.14-.43-.13-1.43-.09-.33-.22-.25-.3-.66-.19.18.3.84.15,1.15-.2-.17-.34-.89-.54-1.05-.06-.42.13.16.27.11-.18-1.13-.6-.18-.78-1.4.31.36.33.37.54.22-.22-.54-.37-2-.51-1.28-.21-.16-.12-.97.08-.8-.07-.48-.18-.57-.3-.64-.15-1.23.04-1.33.37-.98.2-.18-.29-.5-.34-1.22ZM1430.08,360.99c.51.02-.08.58.67.27.45-.06-.1.13.03.24-.95.19-2.89.32-3.05.63-.48,0-.64-.14-1.52.07-.03-.11,3.23-.44,3.89-1.05-.07-.1-1.24.1-.02-.16ZM1444.35,358.52c-1.68.66-5.4,1.01-2.24.14-.05.19,2.11-.14,3.09-.48.08.1,1.32.05,1.28-.1.89.02-2.45.73-2.12.44ZM1434.4,360.66c-.96.42-2.37.65-3.06.55.65-.48,2.52-.76,3.06-.55ZM1435.95,360.51c-.36.06-.2-.04-.02-.08-.08-.08-.58.05-.93.11,0,.12.56-.49.49-.67,1.57-.14.46.37.46.64ZM1437.76,360.13c-.42.07-.16-.22-.66-.11-.03-.11,1.77-.48.25-.22.48-.39.89-.04,1.55-.24-.18.11-.34.22.05.16.28.16-1.46.24-1.2.41ZM1383.12,349.77c-.06-.66.44-.29.58.45-.2-.11-.39-.12-.58-.45ZM1383.25,350.37c-.11-.97.29,1.06.4.33.08.42.16.87.25.81.02.37-.08.49.06,1.06-.13.11-.25-.96-.39-.69-.01-.82-.04-.94-.31-1.51ZM1384.06,354.31c.2-.46.39.35.58,1.23-.2.47-.39-.31-.58-1.23ZM1380.14,336.94c-.25-.91.07-.75-.18-1.66.3.45.19,1.41.51,2.08-.11-.04-.22-.44-.33-.42ZM1381.71,344.93c-.05.12-.09-.06-.13-.23-.04-.21-.09-.42-.12-.6.29-.21.62.69.74-.36.07.25.04.32,0,.36-.3,2.08.94,2.23.94,4.55.06.3-.03.32-.07.44-.04-.25-.09-.23-.13-.22.23-.53-.44-1.95-.39-1.07-.09.02-.1-.26-.06-.3-.04-.21-.09-.42-.13-.62.11.03.22.42.33.41-.28-.89-.6-2.01-.72-1.13-.11-.61-.03-.94-.05-1.42-.1-.37-.29-.19-.21.2ZM1395.75,291.97c.08.17-.87.27-.93.44-.17-.36-.66.42-2.44.67-.03.1.09.13.32.1-1.45.37.42-.37.6-.62,1.13-.18,1.31-.41,2.44-.59ZM1477.85,334.13c.43,1.01-.03.78.45,2.18-.09-.03-.18-.06-.26-.09.05-.74-.19-1.16-.19-2.09ZM1416.97,365.25c.29-.18.52-.37,1.27-.51-.17.21.43.07.91-.03-.75.35-1.1.33-2.18.54ZM1469.96,295.21c.17.68.22,1.17.12,1.35-.19-.17.04-.24-.06-.69-.11-.23-.22-.35-.33-.44-.06-.3.04-.31.07-.45-.04-.25-.08-.25-.13-.25.02-1.02.18,1.02.34.47ZM1468.67,288.98c.17.71.24,1.19.26,1.61-.16-.1-.13-.57-.2-.94-.14.03-.08.37,0,.77-.26-.18-.35-1.66-.06-1.45ZM1411.68,366.51c-.81.15.46-.24.08-.34.2,0,1.75-.4,1.59-.58.52-.44,1.94-.06,1.87-.47.36-.06.21.1.26.19-1.07.15-1.11.36-.33.24-.14.14-.8.23-1.25.34-.03-.14.4-.26.37-.4-.96.33-1.7.68-2.58,1.02ZM1421.33,364.02c.24,0,.47-.01.9-.11-.24.12-.34.25-.32.39-.79.15-.96.04-1.24.34-.73.19.21-.41-.91-.05.1-.11.64-.19.65-.3.07.16.52.11.93-.27ZM1425.02,363.99c-.09.11-.64.19-.64.3-.67-.09-1.24-.23-1.83-.35.13-.25.96-.2.6.04.28-.23.88-.44,1.24-.66.63-.17.84.3.93-.11.6.02.24.1,1.23-.18-1.56.58.55.03.65.28-.91.2-1.69.36-1.58.08-.66.24-1.38.47-1.54.72.06.09.58-.05.94-.11ZM1386.15,371.09c.23.41.1-.66.19-1.07-.11-.38-.22-.03-.32.05-.1-.57-.03-.85.13-.98.26.94.53,2.19.63,1.07.26.9-.11.76-.06,1.3.05.07.09.1.12.1.04,0,.07-.05.09-.14.04-.14.07-.37.16-.53,0,.06,0,.16,0,.28.24.04.61.09.76-.22,1.23.08.27.69-1.16,1.38-.2-.02-.27-.07-.3-.1.06-.34.14-.03-.24-1.15ZM1379.18,336.26c.16.4.09-.21.34.46.02.48-.06.76.05,1.4-.41-.69-.5-2.44-.99-2.79-.11-.79.12-.9.23-1.27.06.37.13.53.19.55-.21.69.4.83.18,1.64ZM1402.07,369.16c-.91.44-.86-.15-2.43.34.92-.52,1.59-.26,2.43-.34ZM1453.36,358.62c-.64.04-.46-.33-1.77.05.38-.27.72-.28,1.54-.4.08.12.16.24.23.36ZM1476.2,322.97c-.05-.28-.1-.31-.16-.34-.12-.92.3.43.41,0,.07.34.14.65.2.96-.09.06-.51-1.3-.39-.32-.11-.06-.11-.31-.06-.31ZM1467.58,355.76c-.61.13-1.26.26-1.88.39-.13-.21,1.69-.74,1.88-.39ZM1385,367.52c-.26-.97.03-.66.13-.18.01-.29-.02-.71-.07-1.11.13.2.14.54.38,1.45.08-1.2.6-.82.89.75-.27.98-.59-.23-.7.58-.1-1.3-.37-1.7-.63-1.49ZM1397.57,369.67c-.3.06-.19-.06-.21-.12-1.18.62-2.48.81-1.62.99-.88-.04-2.02.51-2.93.77-.76.18-.22-.19-.8-.08-.95.24.41.04.15.22-.31.26-.3-.18-1.52.24.6-.57-.97.23-.34-.34-.72.3-.8.17-1.59.33.21-.21.97-.36,1.18-.58.57-.37.26.18-.42.25.25.21,1.59-.44,1.8-.29.57-.38-.96.14-.39-.25.25-.01.5-.03.5.06.49-.15.84-.3,1.1-.48-.27.04-.33.1-.36.16-.57.12.84-.58-.36-.34.26-.13.78-.24.79-.41.46-.26-.45.78.97.21.66.12-2.09.69-1.71,1.09,1.79-.44,1.04-.65,2.47-1-.07.13-.17.27.19.2-.12.13-.62.2-.99.29,0,.09.54-.04.89-.1-.1.08-.38.15-.43.25,1.25-.36,1.43-.9.45-.82.17-.26,1.59-.52,1.91-.48-.5.29-.06.16-.53.52-.3.06-.19-.06-.24-.11-.58.18-.12.17-.14.27.66-.18.75-.4,1.29-.35-.12-.04-.23-.08-.16-.21.3-.06.63-.13.94-.19-.11.17.27.12.12.3ZM1456.59,358.11c-.57-.06-.73.21-1.62.26.08-.19,1.89-.47,2.21-.46.4.11-1.48.5-.59.2ZM1457.86,357.85c-.18.28-.42-.03.29-.14-.16-.12-.4-.19-.86-.15.28-.33.88-.01,1.61-.25-.18.18-.53.36-1.04.54ZM1461.65,357.07c.09.19-.6.01-1.26.26-.37-.14.53-.27.41-.41.81-.23.07.38.85.15ZM1452.9,359.04c-.27.01-.54.03-1,.13-.33-.15.56-.28.47-.42.67-.15.32.22.53.3ZM1381.65,350.96c.16-.73.3,1.38.46.65.14.51.07.66,0,.78.12.2.26,1.12.39.69.19-.03-.32-1.35.01-1.13-.08-.53-.17-.47-.26-.86.2.89-.11.71-.4-.34.18-.19.24.37.27-.29-.1.04-.38-.37-.66-.03-.19-.98.28-.78.02-1.9.15-.05.3.68.45,1.03.2-.36-.43-1.02-.06-1.07-.22-.07-.44-.64-.66-.45.1.96.07,1.69.11,2.53-.27-.53,0-2-.44-2.94.19-.04.03-.72.27-.67-.24-.86-.41-.17-.4.03-.19-.11-.45-1.96-.25-2.01-.2.05-.59-2.12-.31-2.27-.3-.48-.17-1.74-.53-1.75,0-.43-.15-1.16-.32-1.93.19-.41.35,1.05.53,1,.24.08-.35-1.4-.12-1.35.04-.04.09-.08.14-.12.06.69.13,1.38.18,2.04.12.43.06-.2.2-.18-.04.53.1,2.76.51,2.46.17,1.42.43,2.29.38,2.99.18.77.02-.56.27-.27.19,2.6,1.11,5.06,1.19,7.33.1.4.22.09.33.03.41,2.79-.34.86.18,2.84.17-.2-.06-1.16.14-1.32.15.72.07,1.03.32,1.94-.09.11-.17.21-.26.31.17.77.34.19.52.5.14,1.07-.03.98.32,1.15.09,1.05.21,2.03.51,2.86-.01.81-.56,0-.78-.98-.04.13,0,.41-.06.5.4.93.81.63,1.21,2.32-.49-1.04.05.82.26.84.13.74-.25.57-.32.05-.07.21.1.55.19.51-.28.49-.77-1-1.02-2.94-.17,1.25-.24-1.3-.45.17-.23-1.54.26-.6-.12-2.18.13.03.26.25.38.28-.21-1.29-.43-.57-.65-1.93.13-.43.26.47.39.31-.48-1.19-.64-1.56-1.04-2.26.08-.33.33-.32-.12-1.77-.04.05-.09.1-.13.15.2.71-.15,1.33-.52-.57.11-.28.22.32.33.79.08-.36,0-1.02-.12-1.77-.1-.33-.28-.66-.2-.16-.25-.1.06-.77-.26-1.65ZM1386.02,370.88c.02,1.04-.5-.24-.7-.59.25-.41.27-.12.7.59ZM1471.59,355.17c1.03.06-1.21-.06-1,.13-1.05.05.7-.29-.37-.33.91-.03,1.16-.31,2.25-.39.14.15-.63.31-1.41.46.03.13.44.05.53.13ZM1383,359.44c-.3-1.12,0-1.17-.2-2.12.22.68.43.65.65,1.94-.15.26-.3.45-.45.18ZM1468.58,355.96c-.54.13-.95.06-.96.2-1.03.13-.11-.25.03-.33.48-.04.74.03.93.13ZM1478.92,336.52c.04-.16-.05-.85.1-.28.04-.24-.23-.88.22-.51-.07-.34-.14-.65-.2-.96-.11.08.13.97-.21.55.01-.6-.09-.4-.26-1.26-.16.39-.27-.11-.55.13.09-.2-.07-.97.15-.85-.3-1.21-.29.24-.6-1.34-.21-.02.04,1.1.24,1.53-.21.14-.5-1.96-.81-3.13.42,1.07.49.3.62-.17-.16-.38-.19-.04-.47-.71-.12-.52-.02-.77-.19-.94-.06-.42.16-.21.27-.25-.18-.74-.44-.24-.6-1.3.53.84.41-.07.01-1.53.13.1.24.56.37.64.14-.2-.37-1.06-.51-1.28-.05-.52.15-.17.23.32.02-.3.04-.61.05-.94.35,1.59.82,4.09,1.79,7.09-.33-.61-.24.04.03.93.18.16.11-.21.04-.62.54,1.11-.17.88.36,2.52.26.9,0-.92.35.1.05.57-.08.92.27,1.29.09,1-.19,1.17.17,2.76-.33-.95-1.03-1.57-1.08-2.44.08.03.16.42.22.67ZM1474.3,354.44c-.23.1-.44.18-.87.27.18.18.68.02.31.26-.65.17-.89.13-1.35.2.13-.15,1.3-.65.46-.59.11-.13.53-.26,1.1-.39-.33.42.97-.18,1.59-.33.33.31,1.02-.29,1.73-.2-.14.25-1.66.34-2.21.46.32-.02-1.03.77-.76.32ZM1480.5,344.93c-.09-1-.35-1.41-.21-1.81-.48-.56.02-.63-.44-1.34-.14-1.01.15-.18.36.16-.1-.97-.34-.38-.44-1.34.28-.05.45,1.2.74,1.19.17.78-.04.68-.01,1.15.09.38.22.33.34.44.11.86.3.9.42,1.63-.2.07-.35-.29-.47-1.1.06.8-.07,1.07.27,2.13.14-.56.9,2.69.37,2.17-.24-.9.06-.51.08-.8-.49-1.26-.57-1.9-1-2.48ZM1479.26,338.97c-.21-.67.32-.47-.02-.88-.06-.31.06-.21.11-.24.04.24.09.29.16.34.03.52.06,1.05-.25.78ZM1480.84,341.06c.04.53-.28.25.06,1.48-.41-1.83-1.02-1.19-1.37-3.47.18.41.25.21.09.03,0-.82.33.9.44.17.11.65-.27.15-.16.79.42.8.64,1.26.94.99ZM1437.81,362.57c-.96.08.32-.38-.15-.54.37-.07.32.09.37.17.27-.1.5-.19.93-.28-.26.22-1.36.41-1.16.65ZM1443.57,361.38c-.85.15.38-.22-.12-.3.93-.19,1.91-.41,1.99-.16-1.06.05-1.28.1-1.87.47ZM1451.63,359.88c-.25.24-1.09,0-2.02.25.15-.1.28-.19.22-.29,1.32-.35.77.25,1.8.04ZM1466.38,356.82c-1.66.38-2.74.17-4.08.11,1.24-.21,2.72,0,3.47-.31,1.13-.15-.2.21-.11.27.09.06.46-.03.72-.07ZM1474.77,355.17c-.43.07-.45-.11-.63-.2.61-.11.59-.22,1.2-.33.08.06.16.13.25.2-.48.12-.61.05-1.05.14.08.06.16.13.23.19ZM1469.54,356.5c-.48-.02-1.11.03-1.32-.13.59-.09.57-.18.51-.27.62,0,.13.27.81.4ZM1472.51,355.97c-.95.12-1.42-.02-1.81-.2.58-.13,1.04-.27,1.12-.4,1.25-.12-.58.3-.71.39.32.15,1.16,0,1.39.2ZM1385.29,292.83c.02-.1.3-.11.3-.06,1.02-.29.02-.19.59-.45.83.02-.4.51.66.43-.2.19-.95-.04-1.55.08ZM1383.05,296.15c1.19.02-1.61,1.18,0,0ZM1406.76,293.53c-.2.04-.4.08-.6.12.17-.19-.33-.42.66-.54.05.06-.13.11-.3.14.16.05.65-.05.53.14-.26.04-.29.09-.3.14ZM1462.93,281.33c.22-.11.42-.22.5-.35.14,0,.24,0,.32,0,.01.37.02.47.21,1.07-.22.22-.35-.17-.43-.75-.21.02-.42.03-.61.02ZM1468.66,300.37c-.23-.33-.19.77-.44.63-.18-1.72.35-.66-.19-2.85.09.1.18.22.27.12.12,1.13-.02,1.33.32.78.1.49-.34.93.03,1.32ZM1385.51,361.3c0-.29-.07-.96-.18-.89-.07-.37.06-.42.12-.57-.12-.75-.26.55-.38-.67.29-.89.84,1.3.44,2.13ZM1379.32,327.06c-.2.47-.35-1.14-.52-1.72.1.13.21.3.15-.09.33.52,0,1,.38,1.81ZM1374.08,319.12c-.09-1.01.37.05.48.77-.11-.18-.23-.22-.36-.15-.02-.3-.02-.6-.13-.61ZM1469.34,285.92c.17-.15.34.4.2-.62-.45-.81-.44.34-.33,1.57-.09.09-.18.19-.27.29-.09-.44-.18-.68-.26-.89.27-.53-.44-.6-.59-2.45.02.93-.39.4-.07,1.27-.24-.05-.08.63-.27.69.02-.55-.22-1.58.07-1.64-.11-.55-.22-.96-.33-1.17-.29-.13.16,1.06-.13.93-.06-.3-.12-.3-.19-.52.07-.16.2-.17.13-.55-.29-.9-.2.49-.51-.9.1-.25.21.14.32-.04-.02-.79-.18-.54-.2-1.33-.14.03-.07.68-.19.27.21-.8-.44-1.05-.39-2.27.53.02-.11-.04.11-1.41-.14-.02-.27.86-.41.35-.03,0-.06.02-.09.02.73-.79-2.16-.02.44-1.07-1.18.25-1.19-.25-.2-.53-2.16.58-1.24.06-2,.17-.8.19.32.08-.24.38.85-.19.53.03,1.24-.26-.08.13.02.18.15.22-.72-.03-1.98.6-1.59.81.45-.14.26-.36.84-.49-.47.46.65-.2.51.06-.63.46.36.53-.81.82.1-.16.2-.32.3-.47-.3.06-.6.12-.9.19-.45.34-.36.49-.69.63-.51.11-.73.09-.81,0,.66-.19,1.57-.6.56-.44.03.48-1.55.44-.92.6-1.24.42-1.53.08-1.88.47-.59.11-.02-.27-.75-.09-1.29.49-.84.05-2.5.6.09-.42-.2.13-.68.23.09-.16.18-.31.27-.47-.68.36-1.98.74-3.11.73-.38.15-.28.36-1.08.47-.68-.21-2,.46-2.86.26-.2.23-.95.39-1.28.35-.25.17.12.4-.56.52-.31-.17.53-.41-.37-.33-.05.26-.78-.05-.97.28.26.03.54.05.79.08-.42.09-.38.22-.72.31.25-.39-.66.08-.92.19.11-.16.08-.27-.12-.3-.54.12-.95.18-1.18.17-.75.27.28.14-.43.33,0-.64-1.05.29-2.28.15-.42.28-1.08.52-2.02.74,0-.19.94-.28,1.05-.46-1.37.34.32-.23-.55-.05-1.98.54-3.23.8-5.35,1.44.11-.21-1.41-.05-1.42.05.4-.05-1,.52-1.66.67-.02-.4-.89-.61-.87-.8-.32.26-.26.27-.52.68-1.19.38-1.64.09-2.52.68.13-.23-.39-.18-.81-.16.05.18.27.28.46.4-.59.1-.72.24-1.25.34-.3-.63-1.49.48-1.69-.14-.87.17-.8.41-1.61.58.07-.16.02-.26-.2-.29.52-.04.84.1,1.23-.25-1.18.17,2.49-1.21.62-1.11-.1.14.02.3-.41.41-1.08.11-.34-.29.1-.35-.72.03-1.54.29-.84-.15-1.71.27-.68.27-1.32.52-3.04.42-6.91,1.14-11.2,2.32-.09-.31-2.39.46-3.15.82-1.15-.02-2.38.17-2.79.58-.18-.26-1.47.5-1.57.25.51-.09.86-.29.35-.24-1.74.5-4.33,1.12-5.31,1.1-.63.46-1.74.6-2.49.6-.13.17.48.11,0,.25-.15-.13-1.75.02-2.15.28.49-.14,1.02.09.3.27,0-.16-.84.07-.63-.2-1.03.35-1.64.29-2.48.59.7-.11,1.12-.09,1.24.07-.6,0-1.06,0-1.54.32.11-.4-.85.03-1.85.06-.27.18-.47.36-1.26.51-.4-.12,1.23-.51.32-.39,0,.13-.83.44-.64.13-1.05.35-1.64.27-2.47.68,1.08-.31.29.21.03.32-.24.03-.6.12-.61.04,0-.1.54-.19.59-.29-.75.27-1-.12-1.25.18.33-.07.41.06.01.16-.13-.37-2.31.37-1.53.4-.01-.11.83-.28.94-.19-.23.17-1.51.29-1.21.49.73-.11.65-.28,1.53-.4.1.14.62.09.96.13-1.38.28-1.71.06-1.86.39-.6.09-.27-.26-1.26.01-1.4.38-.2.37-.55.52-1.28.13-.93-.29-.42-.65-.99.22-1.32.13-2.49.43.08.14.25.22.68.19.02-.07.99-.45.92-.27-.04.37-.83.69-2.08,1,.25-.4.31-.21-.96.03.15-.39-.59.19-.66-.03.04-.1.5-.19.92-.27-.06-.14-.22-.23-.66-.19-.25.17-.49.07-1.22.33-.02.21.53.14.67.27-.42.07-.54-.02-.96.04-.32.3-.23.61-.13.93.49-.02,1.24-.18.67.1,1.79-.33-.15-.32.52-.51.8.18.31-.17,1.51-.39.36-.06.49-.01.65.03-.08.06-.73.47.05.32.15-.2.55-.39,1.17-.57.02.12-1.24.52.03.24.62-.15.01-.36.88-.5.01.08.25.04.32.1-1.26.22.26.15-.55.44,1.09-.1.14-.31.86-.43.05.15,1.18-.39,1.24-.09-.46-.03-1.35.19-1.2.42.8-.22,4.53-.78,3.04-.88.55.05,3.28-.18,3.06-.31-.8.19-.78,0-.91-.14,1.54-.02,2.3-.4,3.97-.42-1.81.43-.43.55-1.48.96-.47.09-1.12.26-1.24.18.19-.29.94-.33,1.24-.26-.01-.22-.02-.43-.03-.65-1.97.66-3.06.62-3.97.9.8-.13-1.48.65-.56.53.37-.25,1.31-.46,2.11-.68,0,.08.01.16.02.24.35-.06.86-.19.89-.11-1.1.17-1.67.55-2.42.5,0,.05,0,.11.01.16-.18.04-.35.08-.29.14.35-.06.85-.19.92-.11-.79.22-.92.48-1.79.7.23.25-.9.82.39.65.18-.31.87-.53.83-.66.37-.18,1.14-.27,1.53-.23-.37.25-1.12.47-1.16.73.61-.08,1.11-.09,1.48-.39-1.29.14.68-.35,1.17-.73-.14.15-.43.3-.6.45.99-.19,1.45-.49,1.52-.15,1.2-.13.92-.37,1.77-.53-.54.45.56.04.01.49,1.39-.22.4-.39.89-.51.44-.07.5.03.9-.02.64-.31,1.92-.58,2.1-.93.55-.09.64-.22,1.2-.33.14.07.32.12.58.13.09-.11.5-.3.61-.21-1.56.7-1.12.63-2.72,1.22-.11-.09-.35-.07,0-.24-1.1.17-1.42.39-2.38.57-.11.22-.31.62-1.18.57.21.21-.02.34.33.34.46-.24,1.09-.46,1.76-.69.06.09-.06.24.29.19.32-.2.81-.36,1.21-.33,0-.12-.14-.15-.31-.18,1.48-.38.95.06,2.08-.35-.18.21-.9.35-.3.39,1.01-.14,1.24-.35,1.76-.53.08.05.02.16.31.1.73-.33-1.57-.17-.28-.76.08.24,1.33-.11,1.51-.31-.4-.12-1.14.33-1.19.17,2.27-.5.08-.4,2.42-.99,0,.11-.02.22-.02.33-.93.16-.97.38-.93.6-.81.19-1.15.58-1.81.54.24.43.66-.11,1.51-.31-.04.25-.8.44-.92.68,1.92-.61,2.29-.33,4.14-1.1-.46.39,1.01-.16.87.06-1.58.28-.98.85-1.25,1-1.03.18-.53-.39-1.12-.42-.31.32-.17.42-.06.74.92-.28.77-.2,1.48-.22.62-.34,1.18-.91.37-.9.17.01,1.36-.09,1.47-.3-1.15.25.13-.15-.55-.13.91-.36,2.46-.36,3.56-.82-.11.18.29.12.24.28-1.06-.02-1.34.59-2.4.82.46-.07.18.14-.03.25,1.05-.35,1.59-.24,2.37-.65-.01.08-.03.17-.04.26,1.29-.47,1.1-.34,2.04-.34.4-.22-.04-.57-.15-.79.44.02,2.15-.39,1.12.09,1-.2.81-.5,1.82-.7-.02.26-.97.44-.69.72.93-.14.46-.39,1.19-.33.07-.23.14-.45.95-.61-.61.32.07.08.26.19-.38.12-.71.24-.92.35,1.48-.37,1.76-.42,2.92-.6-.36-.2.32-.42-.46-.4.71.03,1.71-.51,2.07-.43-.48.2-1.23.36-1.55.56,2.33-.4,3.48-.34,5.6-1.16-.34.06-.84.19-.87.1.23-.06.6-.12.63-.21-.72.16-1.41.3-1.76.28-.67.26.32.13-.36.32-.07-.14-1.35.27-.8-.16,1.06.01,2.2-.49,2.8-.99.9.27-.07.44.91.71.02-.15.29-.27.65-.38-.45.45.98-.03,1.12-.07-.47-.06-2.36.15-1.26-.39-.65.77,2.34-.65,1.66-.02,1.25-.21.91-.49,1.5-.31.06-.11.02-.24.37-.33.34-.05.43,0,.55.05-1.81.52-1.4.76-2.55,1.02.2-.04.37-.07.29.02-.02.06,0,.1.26.03.19-.36.89-.12,1.23-.42-.34.06-.68.12-.52-.06,1.44-.23,1.3-.52,3.37-1.1-.66.3.12.19.8.08.99-.24.77-.59,1.95-.81-.37.71,1.27-.32,2.52-.19,0-.34,1.9-.84,2.15-.61.11-.14.76-.24,1.22-.34.18-.18-.34-.14.11-.27.38-.03-.12.33.43.24.67-.21.68-.49,1.63-.66-.08.24-.57.28-.16.36.89-.28,1.63-.43.81,0,1.22-.21.85-.6,1.99-.82-.41.2-.42.29.16.21.54-.31.62-.42.82-.58.23.17.1.23,1.1-.06-.06.12-.12.25-.18.36.44-.11,1.05-.19,1.22-.33-.84.23-.48-.07-.76-.09.83-.21,2.54-.82,1.18-.25,1.06-.1.7-.37,1.57-.49-.7.42-.05.05.85-.1-.28.39.58-.08,1.14-.16-.2.23-.13.34.38.25.06-.15.43-.28.99-.37-.07.14-1.39.55-.15.28.65-.25.81-.56,1.75-.77.36-.32-.74,0-.36-.33.6.12.95-.14,2.09-.43-.73.61,1.81.23.37.74.38-.09.67.2,1.12-.15-.37.02.5-.38.5-.43.49-.05,1.8-.47,1.71-.27-1.08.16-1.24.43-1.69.68,1.54-.18,3.05-.59,3.13-.9-.06.1.16.07.17.13-.55.07-1.21.62-.57.52.04-.27.58-.45,1.15-.64-.14.27,2.27-.59,1.61-.09-.71-.06-1.68.53-1.12.56.7-.37,1.98-.77,1.87-.96.26.03.49.06.71.1.08.21-.56.33-.59.53.44-.11,1.06-.19,1.23-.34-1.15.21.71-.29-.36-.25.73-.14,1.01-.34,1.62-.5-.02.04,0,.06.03.07,0,.1,0,.22-.03.3,0-.09,0-.17,0-.24-.39.02-.86.25-.91.48.31-.05.53-.11.71-.18.13.27.26.2.38.8-.09.45-.11,1.96.16,2.33-.24-1.1.11-.05.07-.84-.34-.83-.19-1.4-.1-2.04.2.29.45,1.04.23,1.5-.13-.52-.03-.67-.05-1.04-.11.2-.17.5-.13.94.24.27.3,1.53.42.47.03.88.4,1.41.41,2.35-.2-.8-.4-1.3-.6-1.34.06.8.42,1.19.29,1.4-.19.15-.36-1.02-.54-1.05-.02,1.13.81,1.75.16,1.2.14.44.27,1.12.41,1.22-.1-.63.3-.3.39-.11.1.53.15.99.1,1.28-.08-.89-.48-1.16-.37-.61.14,0,.03.33.05.63.13-.09.24.9.37.96-.11.06-.21-.33-.31-.31.04.59-.09,1.67.27,1.73-.05-.34-.17-.77-.1-.89.59,1.12.93,1.33,1.42,2.94-.03-.23-.01-.39.08-.41.25,1.09.51,1.72.62,1.44.11.73.06,1.21.02,1.67-.27-.62-.12-1.05-.36-1.36.01.32-.53-.17-.72-.34-.04-1.41-.41-1.14-.52-2.51-.14.58-.24-.84-.38-.26.55.81.53,2.14,1.01,3.67.13-.38.23-.7.47-.1.33.99-.08.72.16,1.55.25.21.18-.35.33.04-.03.38.17,1.19.43,1.3-.27-1.14.22.08.16-.78.08.4.16.59.25.82-.49-.95-.07,1.38-.43.66.21,1.66.56-.3.79,1.06-.29-.54-.21.38.03,1.3.28.1.52,1.06.78,1.8-.26-.32-.31-.63-.29.17-.18-.33-.31-1.01-.3-1.43-.1.06-.19-.04-.28-.16.15.97-.03.65-.04,1,.16.22.3.91.45,1.01-.07.04-.03.3-.09.36-.27-1.18-.27.37-.48-.34-.1-.53.2-.34.04-.98-.41-.45-.18.7-.33,1.16-.29-.43-.13-1.27-.43-1.29-.11.86.3,1.89.57,2.76-.32.12.39,1.5.05,1.82.12.09.23.21.34.43-.19.38.2.53.25.8-.13.09-.25.05-.36-.13.36,1.07.41,1.34.56,2.73.19.16.38.36.58.4-.03-.34-.05-.65-.02-.9.41,1.85-.48.87.17,2.03-.14-.02-.59-.82-.52-.13.53,1.07.59,2.77,1.26,2.57.43.99.13,1.78.54,2.22.05.33,0,.45-.04.6-.21-.31-.42-.69-.62-1.05-.01-.64-.29-.87.18-.34-.16-.93-.38-1.13-.58-1.6.08,1.3.55,2.41.2,2.52.23.41.47.7.7,1.03-.15.16.06,1.59.35,1.67-.28-.96-.18-2,.17-1.15.31,2.41,1.05,3.75,1.22,5.88.13.06.28-.09.38.3-.14-.01-.23.06-.26.28.16.66.34,1.05.48,1.95.23-.02.45.14.62.65-.2.24-.52,1.06-.32,1.59-.1-.54.37.23.45.62-.43-.4.81,2.61.27,1.69.23,1.15.48,1.69.61,1.75.04.4.02.68.05,1.08.44.38.56,2.29.79,2.64-.28-.74.12-.72.21-.18-.12.31.03,2.05.17,2.41.08-.07.31-.09.21-.95.36,1.53-.06,1.34-.22,1.72.37.12.2.66.18.85.29.56.11.03.36.17.15.55.35.82.48,1.51-.35-.35-.03.51.09.82-.18,0-.22.33-.13.94.31-.6,1.28,3.92.71,2.65-.08.72.52,1.1.7,2.18-.04.03-.04.12-.04.21,0,.21.05.4-.19-.12-.96.14-.04.29-1.27.43.13-.34-1.02.28-1.21-.08.03.46-1.52.18-2.03.67-.08-.06-.35-.02-.48-.06-.26-.06.91-.39.05-.25-.79.35-.17.3-.16.44-2.77.45-5.86,1.21-8.6,1.86.24-.17.14-.23-.49-.14-.41.57-3.91,1.06-4.54,1.02-.07.34-1.99.42-2.19.62.32-.09,1.16,0,.46.15-.68-.18-1.12.13-1.95.08-.12.35-2.41.48-1.15.73-.4.08-.6.16-.8.25-.22-.26-.62-.14.03-.42-1.77.58-2.37.44-3.7.93-.34-.08.72-.42-.18-.29.03.05.06.09.09.15-.31.07-.49-.02-.56.12.13.11.59-.02.79.24-.77.05-1.07.46-1.45.3.98-.24.06-.51-.41-.16.61.02-2.3.47-3.28.51-.33.36,1.01-.16.99.04-1.73.3-1.54.38-1.86.14-.87.26-1.15.48-2.29.56-.58.24.44.11-.2.28-.43,0-.65-.09-1.25.02-1.39.83-5.28.77-6.87,1.91.68-.34-.29-.29-1.23-.07-.04.1.09.21-.24.3.03-.19-.3-.2-.92-.06-.04.1.09.21-.25.3-.29-.24-1.03.2-1.5.14-.17.32,1.1-.09,1.21.08-1.5.49-1.79.26-2.92.6.6-.1-.42.34-.59.45.24-.35-.68-.26-.03-.56-.43.1-1.08.19-1.17.32.23-.03.6-.12.6-.04-.55.06-1.23.49-1.49.31.37-.11.6-.23.6-.37-.14-.07-.31-.12-.6-.12.84.46-1.59.67-1.73.53-.24.45-.39.47-.31.63-1.04.25-.88-.07-1.47-.02.15.26.34.44-.62.78.23-.38-.93-.09-.55-.54-2.41.4-2.98.89-4.44,1.17-.01-.09.45-.22.03-.17-.7.22-1.33.45-1.82.7-.33-.13.2-.29-.21-.28-1.15.48-.96.73-1.97,1.14-1.13.03-.74.1-1.38-.04.32-.08.76-.29.34-.23-.79.4-1.17.76-1.36.86.52-.1.94-.22,1.22-.34.12.14.86-.01.2.29.78-.23,1.64-.44,2.74-.65-.44.36.95-.13.51.22-1.22.19-1.56.44-2.73.64.34-.36-.93.06-1.18.17.05-.17-.79.06-.52-.22-.89.13-.92.33-1.81.45-.09.12-.02.24-.38.33-.22-.23-.65.22-.94.27.31-.34-1.07.09-1.08-.1.35-.08.84-.16.94-.27-1.47.33-.2-.18.16-.44-.1.13.29.39.49.15-1.14.03,1.86-.81.73-.48-.95.25-.81.03-1.76.29-1.28.71-.07.7-1.33,1.34-.59-.09-1.08.05-1.03-.19-.19.14-.41.27-.7.39-.22-.11,1-.48.15-.36-.49.16-.12.43-1.06.55-.31-.14,1.29-.53.44-.42-1.12.62.26-.18-.8,0-.12.09-.31.16-.65.21-.12.15-.06.31-.46.42.01-.43-.5.28-1.25.34-.27-.25.9-.35.8-.58-1.06.52-1.4.24-1.78.37.61.09-1.24.43-1.43.71.38-.37-.11-.13-.99-.21-.34.54-1.31.41-1.8.86-.07-.1-.31-.14-.38-.25.36-.08.71-.17.69-.31-.29.06-.58.12-.9.19-.63.33.33.65-1.64.99.46-.43-.37-.29-.84-.32.26-.34.79-.16.99-.37-.54-.08-1.4.33-1.9.56-.53.05-1.17.19-1.87.34-.15-.69-.32-1.45-.45-2.36-.23-.16.14,1.63-.19.66-.09-.48.11-.47-.05-1.07-.71,1.8-1.1-4.3-1.51-4.16.13-.43-.27-1.75,0-1.93.02,1.22.42,1.55.63,1.86.08,1.06-.37-.56-.26.35.15-.09.29,1.31.44.95-.25-1.32.33.41.32-.83-.29-1.14-.56-3.8-.69-2.92.07-.09.19.42.12.58-.37-1.22-.38-2.21-.36-2.94-.28-.42-.49-3.15-.49-2.39-.22.01.34,1.37.12,1.36-.59-2.39-.44-2.64-.93-4.1.35.25,0-2.12-.05-1.82-.2.23-.46-.1-.44-1.34-.18.38-.35-.08-.52-.55.14-.43.26.25.4-.04-.1-.5-.21-1.02-.32-1.52-.09.06-.18.26-.26-.08.01-.69-.21-2.89-.29-2.61-.09,1.12-.51-1.15-.41.41-.08-.38-.17-.32-.26-.84.09-.09.18-.18.27-.27-.2-1.14-.44-.24-.65-1.17.08-.18.01-.61.08-.81.08.39,0,.49.12.98.22-.88.39.82.6.51-.18-1.08-.39-.89-.58-1.23-.13-1.45-.08-.77-.44-2.11.09-.08.18.29.27.1-.42-1.63-.81-1.08-.9-2.39.03.28.09,1.49-.09.77-.07-.88.1-1.3-.09-2.38-.09,0-.19.19-.27-.15-.01-.51.16-.69.17-1.17-.13,0-.18-.64-.19-.91-.26-.24-.19.32-.35-.1-.17-.89.22-1.73,0-2.41-.28.24-.35-.65-.46-1.41-.3.08-.57-1.51-.84-2.49.27.08-.03-.92.24-.83.1.5.21.72.33.78-.22-1.18-.75-1.23-.57-2.34-.25-.34-.49-.81-.73-1.56.11-.17.52,1.26.41.41-.1,0-.11-.29-.12-.58-.22.27-.42-.34-.62-.64.03-.81-.59-2.1-.16-1.58-.18-1.14-.43-.18-.62-1.03.41.26.12-1.21.45-.58-.17-1.18-.54-.88-.56-.35-.28-1.03-.13-1.37-.38-1.83.33.38.13-1.3.16-.41-.19.39-.31-.92-.47-1.09.25.3.13-.26.42.44-.1-.82-.32-2.01-.71-2.63-.06-1.06-.25-2.01-.39-1.47-.14-.96-.07-.61-.32-1.53.08-.03.15.23.22.26-.26-1.29-.36-.97-.72-2.67-.25.32-.46-.78-.71-1.05.17.7.36,1.24.53,1.78-.1.17-.28-.37-.22.09.1.03.18.28.27.53-.45-1.01-.1,1.58-.02.68-.05.02-.1-.02-.14-.27.28.12.19.15.38-.15.04.59.43.91.25,1.21-.11.01-.19-.53-.28-.56.15,1.45.38.29.54,1.41-.21.35-.38-.19-.57-.4.19,1.02.38,1.87.59,2.07.1.96-.2.03-.18.73.17.28.34.17.49.78.04.73-.26-.3-.16.4.3.67.21-.65.5.44-.41-.1.26.98.04.99-.1-.67-.43-.51-.14-.29.62,1.32,0,2.8.82,3.97-.07.04-.04.29-.08.38-.38-1.01-.74-2.64-1.15-2.76-.11-.94.13-.93.18-1.11-.49-.91-.53-.79-.74,0,.31,1.8.66,2.45.99,3.58-.04.73-.1-.01-.28-.18,1,3.49-.24,1.11.09,2.38.12-.1.23.13.34.48-.1.06.05.58-.01.72-.06-.23-.14-.33-.21-.21.11.95.27.45.42.43-.17-.68-.22-1.15-.11-1.32.08.97.43,1.53.3,2.26.49.64.54-.84.87-.54.14-.26-.43.91-.4,1.64.25,1.1.02,1.29.23,2.31.29.11-.11-1.09.1-1.13.06.3.13.32.2.58.13.74-.08.81-.03,1.43.28.15.19.42.19.9.24.62.09-.51.28.18.21.71.02,1.47.1,1.69.1,0,.19-.21.28.14.03.99.06,1.21-.29.22.24.94.23,1.43-.03,1.45-.33-1.43-.36-1.83-.79-2.28.18-.45-.08-.74-.26-1.25.45.07-.12-.65.02-1.09.11.34.23.67.34.83-.34-1.53-.38-1.47-.29-2.97-.1.06-.19-.05-.28-.16-.02.46.28,1.53.1,1.69-.44-.7-.1-1.28-.59-2.09.08-.53.44.64.29-.19-.23-.3-.46-.74-.68-1.32-.1-.69-.06-1.09-.1-1.68-.1,0-.2-.02-.28-.55.1-.02.28.45.22-.13-.62-1.48-1.05-2.46-1.27-4.17.19.54.7,1.72.55,1.09-.3-.65-.22-1.8-.59-2.45-.13-.2.27.87-.17.79-.13-.74-.26-1.18-.39-1.52.15-.07-.08-.9.17-.78.15.6-.09.91.05,1.01.53-.82-.68-2.19-.94-3.34-.06-.81.35.48.24-.43-.01-.59-.61-.67-.52.22.23.53-.01.91.27.92.03.25.13.61.06.64-.11-.42-.23-.26-.35-.51.17.6-.26.89.11,1.33-.06-.38-.02-.53.02-.71.28,1.72.58,2.15.88,3.05-.26-.45-.09.08-.3.15-.09-.77-.53-2.08-.41-1.19.41.41-.22,1.23.18,1.65-.07-.44.09-.45.1-.73.16.63.33.51.48,1.15.09,2.24,1.01,3.47,1.21,7.04.24,1.14-.12-1.11.09-1.13.07.34.14.36.2.6-.25.19.13.58-.02,1.09.22-.21.32,1.46.67,2.07-.08.09-.22.08-.15.45.77,2.09,1.24,6.56,1.84,8.08-.19.08-.03.85-.09,1.15.27,1.07.33.44.46,2.22.12.84.12-.29.14-.49.4,2.48,1.03,4.38,1.1,6.11.08.84.15-.15.53,1.36-.3.34.66,2.33.38,3.03.15,1,.91,2.29.46,1.83.25,1.31.35.15.46.66.16.92-.56.28-.4,1.2.2-.34.27.53.59.89-.16-.69-.23-1.18-.13-1.41,0,.75.16.54.32,1.56.03.88.3,3.2.72,3.46-.09.14-.18.02-.26-.07.1.65.48,1.1.2,1.34.28,1.42.64,1.75.58,2.83.05.72.16-.48.53,1.34-.18.28.5,3.45.84,4.08-.26.41.03.23.13.61-.06.17-.19.22-.12.61.09-.05.11.28.13.61.27-.67.16,1.29.39,1.08-.04-.31.11-.53.19-.28-.2.42.4,1.24.2,1.34-.13-.17-.26-1.13-.38-.64.17,1.35.33.47.51,1.28-.09.05-.26-.33-.19.29.02.08.04.15.06.2.53-.15-.06-.04.58-.35.43-.03,1.14,0,1.45-.05-.09.02.3-.21.43-.25,1.73-.46,5.3-.91,7.14-1.64.06.1.38.07.16.29,1.05-.37.95-.26,2-.58-.06.12-.12.25-.17.36,1.22-.12.31-.42,1.14-.56-.2.61.59-.3,1.36-.45.04.1.39.08.19.29,1.23-.26,1.34-.67,2.34-.73-.26.09-.8.98-.78,1.22.24-.17.6-.32,1.09-.47-.46-.16.26-1.25,1.66-1.25-.82.12-1.17.27-1.07.47,1.15-.22,1.63-.49,2.63-.71.06.25-.67.42-.53.68.25-.04.35,0,.26.11,1.09-.27,1.19-.48,2.31-.56.05-.16-.19-.13-.64.05.13-.23.2-.44-.49-.31-.15.18.17.38-.78.49.05-.15.1-.29.15-.44.72-.17,2.47-.71,2.59-.62-.37.17-.95.35-.76.56,1.25-.33,1.68-.71,2.72-1.05,1.73-.28,4.83-.98,4.38-.5,1.09-.33.71-.26,1.66-.51-.32.33,1.05-.11.93.14-1.16.17-.82.16-1.94.32,0,.15.17.24.61.2.09-.16.57-.3,1.32-.44-.13.08-.87.5-.05.34.07-.08.27-.15.65-.21.02-.14.04-.28.05-.42-.43.01-.96.07-1.25.02.31-.06.39-.15.67-.22.17.11,1.5-.32,1.58-.16-.53.08-.89.3-.33.23.1-.06.99-.33,1.29-.27-1.15.36-.71.29-1.34.68,1.3-.21,1.14-.5,2.61-.7.05-.21.06-.41-.31-.43.96-.68,3.13-.68,3.85-.88-.5.14-1.06-.08-.31-.26,0,.11.56-.04.66.03.26.42-.4.79-.97,1.18.6-.15.73-.06,1.3-.19.19-.21-.42-.45.31-.64.17.36,1.36-.24,1.62,0-.51.08-.85.29-.31.23-.1-.16.95-.29.97-.44-.86.06-1.09-.11-1.63,0,.66-.16-.51-.12.62-.38.51.06.78.25,1.97,0,.44-.14,0-.32.6-.45-.13.28,1.17.06.35.01.44-.09.69-.18.93-.28-.6.36,2.51.04,2.06.31-.06-.34.05-.66.19-.78.65.16,1.3-.21,2.93-.52,0,.31.26-.03.96-.12.16.11-.42.3.06.24.76-.28.79-.29.91-.44.57-.11,1-.22,1.27-.34.06.1-.11.2-.25.29,2.08-.72,3.33-.64,5.17-1.07-.74.28-1.05-.06-.41-.16.39-.04.76-.07,1.01-.04-.35.31-.21.14.69-.06.87-.07-.15.43.49.31.64-.27.18-.29.53-.44.32-.07.66-.14.98-.2-.54.25.17.21.78.17-.54-.18-.32-.28.87-.43.06-.15-.57-.09-.12-.22.24-.08,1.29.05,1.96-.32-.26.03-.41.02-.4-.08.95-.01,1.42-.46,2.13-.69-.64.34-.13.43-.35.64.64-.36,1.71-.3,2.14-.68-1.06.29-.32-.43.37-.57.31.19-.89.37-.37.57.49.1,1.13-.4,1.65-.26.03.15-.53.06-.58.2.61-.11-.11.15.42.08.15-.3.72-.06,1.03-.13.37-.15.99-.64,1.46-.54.07.09-.52.18-.53.27,1.88-.23,2.16-.66,3.95-.74.11-.14.36-.28.8-.41.07.13.41.12.81.07.61-.25,1.2-.5,2.03-.75-.32-.14-.82-.15.37-.4.14.07-.34.2.13.14-.03-.04.21-.13.34-.07.05.05.09.09.13.14-.35.07-.66.14-.98.2.15.12.14.23-.05.34,1.51-.21,1.01-.6,2.11-.61-.16-.35.07-.5-.92-.54.86-.12,1.54-.12,1.94,0-1,.18-.43.36-.6.53.61-.15.73-.04,1.09-.06.57-.3-1.14-.21.24-.54-.81.48,1.11.03,1.75-.2-.02.12-.26.19.22.2,2.08-.28,1.12-.93,2.68-.8-.25-.11.28-.22.42-.34-1.01.14-1.31.15-1.76.2-.02-.09.22-.17.47-.26.15.12.42.09.73-.07.43.06.69.38,1.66.39-.04-.09-.26-.18.1-.27.56.1-.7-.28.96-.53-.19.13-.22.27.09.39.87-.07.59-.13,1.7-.27-.06-.41-1.19-.24-1.73-.38.76-.09,1.6,0,2.11-.27-.4.21.37.27,1.07.19.51-.16-.45-.3.22-.46.61-.05,1.13.06.76.25,1.1-.32,1.14-.04,2.11-.27-.14-.12-.45-.08-.73.07-.04-.09-.32-.16.05-.25.61.02,1.47-.1,2.27-.2-.03-.33-.06-.64-.05-.87-.84-1.79-.54-3.1-1.05-4.71-.17.45-.45-1.97-.91-2.83,0-.41.3-1.51.18-1.1-.43-.32-.46-1.12-.71-1.84.09.04.18.08.27.12-.26-1.47-.6-1.9-.92-2.47-.18-1.72-.98-3.81-1.14-5.89-.42-.62-.45-1.09-.9-2.4.27.09.05-.93-.15-1.89.28.27.03-.64.2-.62.19.87.43.6.63,1.08-.5-1.21-.1-1.72-.55-2.66.1,1.12-.15,1.42-.5,1.52-.21-1.33-.46-2.04-.72-2.32.17-.07.33.1.49.4-.09-.45-.19-.9-.27-1.31-.17-.14-.12.46-.25-.02.02-.31.03-.66.05-.97-.34-.4-.1.5-.2.61-.47-1.75.2-.96.09-1.92-.23-.26-.49-.21-.7-1,.1-.32.3-.41.13-1.31-.17-.57-.38.04-.53-.62.08-.1-.03-.38-.14-.67.15.02.16-.27.11-.65-.15-.09-.21-.73-.2-.99-.14-.05-.65-1.03-.51-1.28.1-.01.19.56.29.62-.18-.73-.24-1.24-.26-1.64-.6-.13-.41-1.41-1-2.84,0-.96.44.1.34-1.12-.31-.66-.19.22-.46.12-.07-.18-.46-1.21-.27-1.3.1-.03.19.55.29.59.03-.92-.24-.81-.42-1.25.2,0,.13-.58.25-.76-.35-2.42-.75-2.23-1.13-3.1.1-.04-.05-.6.02-.7.05.7.44,1.51.28.57-.09.21-.24-1.21-.2-1.34.15.1.28.99.44.54-.18-1.29-.52-.57-.49-1.6-.16-.02-.06.52-.08.78-.09-.38-.18-.93-.28-.95.04.51-.14.59-.23.85.06-.73-.36-1.76.09-1.13-.34-1.26-.45-2.58-.05-1.81-.17-1.08-.36-.3-.34-1.27-.23.28-.31.61-.65.04.11-.21.04-.81.23-.86-.32-1.56-.65-1.83-.97-2.33.45.33.03-.23.09-1.15-.19-.4-.38.25-.55-1.07.58,1.12-.25-1.63.22-1.32-.5-1.48-.48-1.45-.88-3.07-.12.3-.13.79,0,1.54.09-.68.48,1.24.34,1.22-.05.04-.09.08-.14.12-.22-1.24-.44-2.01-.67-2.43.1-.39.07-1.03.35-1.08-.51-.9-.4-2.5-.74-2.79.08.42.14.81,0,.8-.04-.53-.11-1.14.07-1.26.26.88.32,1.05.27,1.67.08-.58.48.67.33-.34-.31.35-.25-2.11-.34-1.23.09,1.18-.41-.99-.58-.92ZM1476.07,314.11c-.04-.26-.01-.4.08-.39-.26-1.02-.06-1.04-.34-1.64-.32.05-.03.89.18,1.68-.04.04-.03.31.07.35ZM1403.6,366.06c-1.51.51-.9-.32-1.98.25.31-.05.42,0,.5.06-.24.07-.58.12-.62.21.65-.1,1.42-.17,2.09-.51ZM1372.91,302.81c-.56-1.33-.5-2.92-.62-2.42-.37-.48-.49,1.16-.24,1.04.3.08,1.07,2.49.86,1.38ZM1381.56,346.95c-.14.14-.26-.75-.4-.36.09.42.17.81.26,1.24.17-.07.24-.32.15-.88ZM1461.76,277c1.26-.38-.2.4,1.06.02.12-.24.5-.58-.28-.43-.14.15-.61.26-.78.41ZM1426.92,283.8c-.4.09-.73.17-.69.31.42-.08.71-.18.97-.28.03.09-.14.26.22.2.5-.31.4-.6.23-.7-.11.23-1.47.42-.72.48ZM1372.63,312.9c-.3-1.38.25,0,.36.18-.06-.67.4-.3.26-1.13-.14-.11-.28-.38-.43-.49.07.37.2.88.12.98-.12-.48-.21-1.17-.33-1.22.16,1.1-.19.27-.38.15.23.94.08,1.34.4,1.54ZM1409.18,369.15c.67-.17-.13.26-.39.33-.02-.05-.03-.09-.29-.02-.13.23.43.17.85.15,1.84-.49.62-.63-.17-.45ZM1481.32,336.69c0,.24.02.52.12.98-.11-.22-.21-.4-.33-.41,0-.36-.07-.87-.26-1.65.09.06.15.44.22.71.07.33.17.3.25.38Z"/>
  </g>
  <g class="st3">
    <g class="st2">
      <text class="st6" transform="translate(1391.83 348.18) rotate(-11.7)"><tspan x="0" y="0">_v2</tspan></text>
    </g>
  </g>
</svg>